# Blender v2.74 (sub 0) OBJ File: 'Elevator.blend'
# www.blender.org
mtllib Elevator.mtl
o Cube_Cube.001
v -2.700000 0.000000 3.000000
v -2.700000 0.000000 -3.000000
v 2.700000 0.000000 -3.000000
v 2.700000 0.000000 3.000000
v -2.700000 0.200000 3.000000
v -2.700000 0.200000 -3.000000
v 2.700000 0.200000 -3.000000
v 2.700000 0.200000 3.000000
v 2.400000 0.200000 -3.000000
v 2.400000 0.200000 3.000000
v -2.400000 0.200000 -3.000000
v -2.400000 0.200000 3.000000
v -2.700000 1.800000 3.000000
v -2.700000 1.800000 -3.000000
v -2.400000 1.800000 -3.000000
v -2.400000 1.800000 3.000000
v 2.400000 1.800000 -2.699237
v -2.400000 1.800000 -2.699237
v 2.400000 1.800000 3.000000
v 2.400000 1.800000 -3.000000
v 2.700000 1.800000 -3.000000
v 2.700000 1.800000 3.000000
v -2.400656 0.200000 2.700557
v 2.400655 0.200000 2.700558
v -2.400000 0.200000 -2.699237
v 2.400000 0.200000 -2.699237
v -2.400656 1.800000 2.700557
v 2.400655 1.800000 2.700558
v 2.640000 4.821385 2.961316
v 2.640000 4.821385 2.739646
v 2.460000 4.821385 2.739646
v 2.460000 4.821385 2.961316
v 2.460000 1.799776 2.961316
v 2.460000 1.799776 2.739646
v 2.640000 1.799776 2.961316
v 2.640000 1.799776 2.739646
v -2.460000 4.821385 2.961316
v -2.460000 4.821385 2.739646
v -2.640000 4.821385 2.739646
v -2.640000 4.821385 2.961316
v -2.640000 1.799776 2.961316
v -2.640000 1.799776 2.739646
v -2.460000 1.799776 2.961316
v -2.460000 1.799776 2.739646
v -2.460000 4.821385 -2.738684
v -2.460000 4.821385 -2.960354
v -2.640000 4.821385 -2.960354
v -2.640000 4.821385 -2.738684
v -2.640000 1.799776 -2.738684
v -2.640000 1.799776 -2.960354
v -2.460000 1.799776 -2.738684
v -2.460000 1.799776 -2.960354
v 2.640000 4.821385 -2.738684
v 2.640000 4.821385 -2.960354
v 2.460000 4.821385 -2.960354
v 2.460000 4.821385 -2.738684
v 2.460000 1.799776 -2.738684
v 2.460000 1.799776 -2.960354
v 2.640000 1.799776 -2.738684
v 2.640000 1.799776 -2.960354
v -0.085085 4.600000 0.085085
v -0.085085 4.600000 -0.085085
v 0.085085 4.600000 -0.085085
v 0.085085 4.600000 0.085085
v -0.100000 5.100000 0.100000
v -0.100000 5.100000 -0.100000
v 0.100000 5.100000 -0.100000
v 0.100000 5.100000 0.100000
v 0.040332 5.579299 0.045295
v 0.000365 5.032325 -0.000365
v -0.000017 5.170000 0.000124
v 0.103448 5.556327 -0.014611
v 2.429628 4.709667 2.896069
v -0.168000 5.700000 0.168000
v -0.168000 5.700000 -0.168000
v 0.168000 5.700000 -0.168000
v 0.168000 5.700000 0.168000
v 2.492743 4.686695 2.836163
v 2.470670 4.822430 2.896069
v 0.081375 5.692062 0.045295
v 0.144490 5.669090 -0.014611
v 2.533786 4.799458 2.836163
v -2.496993 4.704597 2.806622
v -2.557521 4.681817 2.744031
v 0.010414 5.583292 0.062043
v -0.050114 5.560513 -0.000547
v -0.030606 5.696055 0.060670
v -2.538013 4.817360 2.805249
v -2.598540 4.794580 2.742659
v -0.091133 5.673276 -0.001920
v 0.050697 5.571576 0.058116
v -0.011890 5.594356 -0.002414
v 2.464893 4.692881 -2.768801
v 2.402306 4.715661 -2.829331
v 2.505935 4.805644 -2.768801
v 0.091740 5.684340 0.058116
v 0.029152 5.707119 -0.002414
v 2.443348 4.828424 -2.829331
v -2.585360 4.704597 -2.776291
v -2.517733 4.681817 -2.831133
v -0.069760 5.583292 -0.039220
v -0.002133 5.560513 -0.094062
v -0.064817 5.696055 -0.079964
v -2.580418 4.817360 -2.817034
v -2.512790 4.794580 -2.871877
v 0.002810 5.673276 -0.134805
v 0.000000 5.701445 -0.160000
v 0.000000 7.021445 -0.160000
v 0.031215 5.701445 -0.156926
v 0.031215 7.021445 -0.156926
v 0.061229 5.701445 -0.147821
v 0.061229 7.021445 -0.147821
v 0.088891 5.701445 -0.133035
v 0.088891 7.021445 -0.133035
v 0.113137 5.701445 -0.113137
v 0.113137 7.021445 -0.113137
v 0.133035 5.701445 -0.088891
v 0.133035 7.021445 -0.088891
v 0.147821 5.701445 -0.061230
v 0.147821 7.021445 -0.061230
v 0.156926 5.701445 -0.031215
v 0.156926 7.021445 -0.031215
v 0.160000 5.701445 -0.000000
v 0.160000 7.021445 -0.000000
v 0.156926 5.701445 0.031214
v 0.156926 7.021445 0.031214
v 0.147821 5.701445 0.061229
v 0.147821 7.021445 0.061229
v 0.133035 5.701445 0.088891
v 0.133035 7.021445 0.088891
v 0.113137 5.701445 0.113137
v 0.113137 7.021445 0.113137
v 0.088891 5.701445 0.133035
v 0.088891 7.021445 0.133035
v 0.061229 5.701445 0.147821
v 0.061229 7.021445 0.147821
v 0.031214 5.701445 0.156925
v 0.031214 7.021445 0.156925
v 0.000000 5.701445 0.160000
v 0.000000 7.021445 0.160000
v -0.031214 5.701445 0.156925
v -0.031214 7.021445 0.156925
v -0.061229 5.701445 0.147821
v -0.061229 7.021445 0.147821
v -0.088891 5.701445 0.133035
v -0.088891 7.021445 0.133035
v -0.113137 5.701445 0.113137
v -0.113137 7.021445 0.113137
v -0.133035 5.701445 0.088891
v -0.133035 7.021445 0.088891
v -0.147821 5.701445 0.061229
v -0.147821 7.021445 0.061229
v -0.156926 5.701445 0.031214
v -0.156926 7.021445 0.031214
v -0.160000 5.701445 -0.000000
v -0.160000 7.021445 -0.000000
v -0.156926 5.701445 -0.031215
v -0.156926 7.021445 -0.031215
v -0.147821 5.701445 -0.061230
v -0.147821 7.021445 -0.061230
v -0.133035 5.701445 -0.088892
v -0.133035 7.021445 -0.088892
v -0.113137 5.701445 -0.113137
v -0.113137 7.021445 -0.113137
v -0.088891 5.701445 -0.133036
v -0.088891 7.021445 -0.133036
v -0.061229 5.701445 -0.147821
v -0.061229 7.021445 -0.147821
v -0.031214 5.701445 -0.156926
v -0.031214 7.021445 -0.156926
vt 0.305302 0.464872
vt 0.305302 0.275267
vt 0.311597 0.275267
vt 0.311597 0.464872
vt 0.028333 0.692113
vt 0.028333 0.521467
vt 0.034629 0.521467
vt 0.034629 0.692113
vt 0.034628 0.274980
vt 0.034628 0.464586
vt 0.028333 0.464586
vt 0.028333 0.274980
vt 0.481586 0.502793
vt 0.481586 0.673439
vt 0.475291 0.673439
vt 0.475291 0.502793
vt 0.254941 0.217697
vt 0.254941 0.028441
vt 0.424564 0.029129
vt 0.424564 0.218385
vt 0.198275 0.028441
vt 0.198275 0.217993
vt 0.028333 0.218098
vt 0.028333 0.028546
vt 0.475291 0.436431
vt 0.475291 0.284747
vt 0.525654 0.284747
vt 0.525654 0.436431
vt 0.154377 0.451801
vt 0.154377 0.287765
vt 0.197946 0.287765
vt 0.197946 0.451801
vt 0.368263 0.464872
vt 0.368263 0.275267
vt 0.418625 0.275267
vt 0.418625 0.464872
vt 0.597701 0.028441
vt 0.597701 0.217993
vt 0.588260 0.217999
vt 0.588260 0.028447
vt 0.663809 0.028441
vt 0.663809 0.217993
vt 0.654367 0.217999
vt 0.654367 0.028447
vt 0.254941 0.464872
vt 0.254941 0.275267
vt 0.475291 0.445912
vt 0.525654 0.445912
vt 0.481230 0.037921
vt 0.481230 0.028441
vt 0.531594 0.028441
vt 0.531594 0.037921
vt 0.582320 0.426993
vt 0.582320 0.275267
vt 0.632684 0.275267
vt 0.632684 0.426993
vt 0.481230 0.199086
vt 0.481230 0.189606
vt 0.531594 0.189606
vt 0.531594 0.199086
vt 0.475291 0.275267
vt 0.525654 0.275267
vt 0.084990 0.274980
vt 0.084990 0.464586
vt 0.091295 0.673101
vt 0.091295 0.521467
vt 0.100761 0.521473
vt 0.100761 0.673107
vt 0.166851 0.521467
vt 0.166851 0.673142
vt 0.157427 0.673116
vt 0.157427 0.521482
vt 0.582320 0.635559
vt 0.582320 0.483874
vt 0.632684 0.483874
vt 0.632684 0.635559
vt 0.027734 0.749065
vt 0.034713 0.749065
vt 0.034713 0.844534
vt 0.027734 0.844534
vt 0.028333 0.748994
vt 0.034000 0.748994
vt 0.034000 0.844467
vt 0.028333 0.844467
vt 0.376763 0.095010
vt 0.376763 0.095792
vt 0.376130 0.095793
vt 0.376130 0.095011
vt 0.028261 0.747699
vt 0.035239 0.747699
vt 0.035239 0.843168
vt 0.028261 0.843168
vt 0.028014 0.748582
vt 0.033680 0.748582
vt 0.033680 0.844055
vt 0.028014 0.844055
vt 0.027674 0.748630
vt 0.034653 0.748630
vt 0.034653 0.844099
vt 0.027674 0.844099
vt 0.028744 0.747853
vt 0.034411 0.747853
vt 0.034411 0.843326
vt 0.028744 0.843326
vt 0.273656 0.174472
vt 0.273656 0.173690
vt 0.274289 0.173690
vt 0.274289 0.174471
vt 0.029141 0.747511
vt 0.034808 0.747511
vt 0.034808 0.842984
vt 0.029141 0.842984
vt 0.028386 0.747456
vt 0.035365 0.747456
vt 0.035365 0.842925
vt 0.028386 0.842925
vt 0.027812 0.748864
vt 0.034790 0.748864
vt 0.034790 0.844333
vt 0.027812 0.844333
vt 0.028881 0.749590
vt 0.034548 0.749590
vt 0.034548 0.845063
vt 0.028881 0.845063
vt 0.302340 0.090496
vt 0.302340 0.089714
vt 0.302973 0.089714
vt 0.302973 0.090495
vt 0.028511 0.749288
vt 0.034178 0.749288
vt 0.034178 0.844761
vt 0.028511 0.844761
vt 0.028144 0.749620
vt 0.035122 0.749620
vt 0.035122 0.845089
vt 0.028144 0.845089
vt 0.027974 0.749230
vt 0.034952 0.749230
vt 0.034952 0.844699
vt 0.027974 0.844699
vt 0.028644 0.748893
vt 0.034311 0.748893
vt 0.034311 0.844366
vt 0.028644 0.844366
vt 0.274788 0.138094
vt 0.274788 0.137312
vt 0.275421 0.137312
vt 0.275421 0.138093
vt 0.033974 0.844448
vt 0.028307 0.844448
vt 0.027989 0.749059
vt 0.034968 0.749059
vt 0.034968 0.844528
vt 0.027989 0.844528
vt 0.941098 0.291073
vt 0.934802 0.291073
vt 0.935272 0.275267
vt 0.940629 0.275267
vt 0.940602 0.273105
vt 0.940602 0.292030
vt 0.935257 0.291954
vt 0.935257 0.273029
vt 0.934874 0.288633
vt 0.933187 0.288634
vt 0.934046 0.287802
vt 0.385202 0.104895
vt 0.385202 0.090498
vt 0.385716 0.090330
vt 0.385716 0.104727
vt 0.385924 0.117054
vt 0.385924 0.131420
vt 0.385398 0.131573
vt 0.385398 0.117207
vt 0.456335 0.607112
vt 0.446076 0.604526
vt 0.456335 0.585271
vt 0.290671 0.128104
vt 0.290671 0.146407
vt 0.290251 0.146392
vt 0.290251 0.128088
vt 0.933187 0.286940
vt 0.934874 0.286939
vt 0.384744 0.158249
vt 0.384744 0.143757
vt 0.385258 0.143923
vt 0.385258 0.158415
vt 0.671839 0.147967
vt 0.671839 0.158582
vt 0.661265 0.158589
vt 0.661265 0.147974
vt 0.456654 0.685178
vt 0.446076 0.685178
vt 0.451376 0.663994
vt 0.352553 0.053896
vt 0.342291 0.051321
vt 0.352553 0.032049
vt 0.285624 0.053902
vt 0.275365 0.051317
vt 0.285624 0.032049
vt 0.356796 0.108341
vt 0.356796 0.090347
vt 0.357224 0.090330
vt 0.357224 0.108323
vt 0.356796 0.135054
vt 0.356796 0.117054
vt 0.357219 0.117077
vt 0.357219 0.135077
vt 0.356796 0.184637
vt 0.356796 0.170370
vt 0.357321 0.170525
vt 0.357321 0.184792
vt 0.308452 0.191091
vt 0.308452 0.178156
vt 0.309030 0.178158
vt 0.309030 0.191094
vt 0.299352 0.146244
vt 0.299352 0.128110
vt 0.299771 0.128088
vt 0.299771 0.146222
vt 0.290251 0.191250
vt 0.290251 0.178459
vt 0.290829 0.178475
vt 0.290829 0.191266
vt 0.366314 0.143827
vt 0.366314 0.161370
vt 0.365896 0.161333
vt 0.365896 0.143790
vt 0.356796 0.161656
vt 0.356796 0.143821
vt 0.357215 0.143790
vt 0.357215 0.161626
vt 0.390544 0.052520
vt 0.390544 0.066506
vt 0.389966 0.066518
vt 0.389966 0.052532
vt 0.340401 0.191421
vt 0.340401 0.177573
vt 0.340978 0.177603
vt 0.340978 0.191451
vt 0.308452 0.146087
vt 0.308452 0.128088
vt 0.308879 0.128105
vt 0.308879 0.146104
vt 0.361564 0.070538
vt 0.361564 0.052542
vt 0.361987 0.052520
vt 0.361987 0.070516
vt 0.440456 0.087171
vt 0.440456 0.077070
vt 0.440694 0.077071
vt 0.440694 0.087171
vt 0.440923 0.077072
vt 0.440923 0.087172
vt 0.441133 0.077074
vt 0.441133 0.087174
vt 0.441318 0.077076
vt 0.441318 0.087177
vt 0.253784 0.139633
vt 0.253784 0.149733
vt 0.253599 0.149736
vt 0.253599 0.139636
vt 0.253388 0.149738
vt 0.253388 0.139638
vt 0.253159 0.149739
vt 0.253159 0.139639
vt 0.252921 0.149740
vt 0.252921 0.139640
vt 0.252683 0.149739
vt 0.252683 0.139639
vt 0.252455 0.149738
vt 0.252455 0.139638
vt 0.252244 0.149736
vt 0.252244 0.139636
vt 0.252059 0.149733
vt 0.252059 0.139633
vt 0.329037 0.149811
vt 0.329037 0.139711
vt 0.329221 0.139708
vt 0.329221 0.149808
vt 0.329432 0.139706
vt 0.329432 0.149807
vt 0.329661 0.139705
vt 0.329661 0.149805
vt 0.329899 0.139705
vt 0.329899 0.149805
vt 0.330137 0.139705
vt 0.330137 0.149805
vt 0.330366 0.139706
vt 0.330366 0.149807
vt 0.330577 0.139708
vt 0.330577 0.149808
vt 0.330762 0.139711
vt 0.330762 0.149811
vt 0.236044 0.149731
vt 0.236044 0.139631
vt 0.236228 0.139628
vt 0.236228 0.149728
vt 0.236439 0.139626
vt 0.236439 0.149726
vt 0.236668 0.139625
vt 0.236668 0.149725
vt 0.236906 0.139624
vt 0.236906 0.149724
vt 0.237144 0.139625
vt 0.237144 0.149725
vt 0.237373 0.139626
vt 0.237373 0.149726
vt 0.237584 0.139628
vt 0.237584 0.149728
vt 0.237769 0.139631
vt 0.237769 0.149731
vt 0.439593 0.087177
vt 0.439593 0.077076
vt 0.439778 0.077074
vt 0.439778 0.087174
vt 0.439989 0.077072
vt 0.439989 0.087172
vt 0.441990 0.153983
vt 0.441822 0.154153
vt 0.441623 0.154286
vt 0.441402 0.154378
vt 0.441168 0.154425
vt 0.440929 0.154425
vt 0.440694 0.154378
vt 0.440473 0.154287
vt 0.440275 0.154153
vt 0.440106 0.153983
vt 0.439973 0.153784
vt 0.439882 0.153562
vt 0.439835 0.153327
vt 0.439835 0.153087
vt 0.439882 0.152851
vt 0.439973 0.152629
vt 0.440106 0.152430
vt 0.440275 0.152260
vt 0.440473 0.152127
vt 0.440694 0.152035
vt 0.440929 0.151988
vt 0.441168 0.151988
vt 0.441402 0.152035
vt 0.441623 0.152127
vt 0.441822 0.152260
vt 0.441990 0.152430
vt 0.442123 0.152629
vt 0.442215 0.152851
vt 0.442261 0.153086
vt 0.442261 0.153327
vt 0.442215 0.153562
vt 0.442123 0.153784
vt 0.440218 0.087171
vt 0.440218 0.077071
vn -1.000000 0.000000 0.000000
vn 0.000000 0.000000 -1.000000
vn 1.000000 0.000000 0.000000
vn 0.000000 0.000000 1.000000
vn 0.000000 -1.000000 0.000000
vn 0.000000 1.000000 0.000000
vn -0.999600 -0.029800 0.000000
vn 0.000000 -0.029800 -0.999600
vn 0.999600 -0.029800 0.000000
vn 0.000000 -0.029800 0.999600
vn 0.000000 0.818900 0.573900
vn -0.695400 0.253100 -0.672600
vn 0.701300 -0.255200 -0.665600
vn 0.000000 -0.243500 -0.969900
vn -0.342000 -0.939700 0.000000
vn 0.000000 0.819600 -0.573000
vn 0.573400 0.819300 0.000000
vn -0.573500 0.819200 0.000000
vn -0.701300 0.255200 0.665600
vn 0.000000 -0.244500 0.969600
vn 0.969900 -0.243500 0.000000
vn -0.969600 -0.244500 0.000000
vn 0.342000 0.939700 0.000000
vn 0.695400 -0.253100 0.672600
vn -0.672500 -0.253100 -0.695400
vn 0.672500 0.253100 0.695400
vn 0.341800 -0.939700 0.011400
vn -0.341800 0.939700 -0.011400
vn 0.751400 -0.253100 -0.609400
vn -0.751400 0.253100 0.609400
vn -0.041200 -0.939700 0.339500
vn 0.041200 0.939700 -0.339500
vn 0.098000 0.000000 -0.995200
vn 0.290300 0.000000 -0.956900
vn 0.471400 0.000000 -0.881900
vn 0.634400 0.000000 -0.773000
vn 0.773000 0.000000 -0.634400
vn 0.881900 0.000000 -0.471400
vn 0.956900 0.000000 -0.290300
vn 0.995200 0.000000 -0.098000
vn 0.995200 0.000000 0.098000
vn 0.956900 0.000000 0.290300
vn 0.881900 0.000000 0.471400
vn 0.773000 0.000000 0.634400
vn 0.634400 0.000000 0.773000
vn 0.471400 0.000000 0.881900
vn 0.290300 0.000000 0.956900
vn 0.098000 0.000000 0.995200
vn -0.098000 0.000000 0.995200
vn -0.290300 0.000000 0.956900
vn -0.471400 0.000000 0.881900
vn -0.634400 0.000000 0.773000
vn -0.773000 0.000000 0.634400
vn -0.881900 0.000000 0.471400
vn -0.956900 0.000000 0.290300
vn -0.995200 0.000000 0.098000
vn -0.995200 0.000000 -0.098000
vn -0.956900 0.000000 -0.290300
vn -0.881900 0.000000 -0.471400
vn -0.773000 0.000000 -0.634400
vn -0.634400 0.000000 -0.773000
vn -0.471400 0.000000 -0.881900
vn -0.098000 0.000000 -0.995200
vn -0.290300 0.000000 -0.956900
usemtl Material
s off
f 5/1/1 6/2/1 2/3/1 1/4/1
f 6/5/2 7/6/2 3/7/2 2/8/2
f 7/9/3 8/10/3 4/11/3 3/12/3
f 8/13/4 5/14/4 1/15/4 4/16/4
f 1/17/5 2/18/5 3/19/5 4/20/5
f 8/21/6 7/22/6 6/23/6 5/24/6
f 15/25/2 20/26/2 9/27/2 11/28/2
f 15/29/3 16/30/3 12/31/3 11/32/3
f 19/33/1 20/34/1 9/35/1 10/36/1
f 22/37/6 21/38/6 20/39/6 19/40/6
f 16/41/6 15/42/6 14/43/6 13/44/6
f 13/45/1 14/46/1 6/2/1 5/1/1
f 14/47/2 15/25/2 11/28/2 6/48/2
f 16/49/4 13/50/4 5/51/4 12/52/4
f 27/53/2 28/54/2 24/55/2 23/56/2
f 22/57/4 19/58/4 10/59/4 8/60/4
f 20/26/2 21/61/2 7/62/2 9/27/2
f 21/63/3 22/64/3 8/10/3 7/9/3
f 20/65/6 15/66/6 18/67/6 17/68/6
f 19/58/4 16/49/4 12/52/4 10/59/4
f 28/69/6 27/70/6 16/71/6 19/72/6
f 17/73/4 18/74/4 25/75/4 26/76/4
f 30/77/3 29/78/3 35/79/3 36/80/3
f 29/81/4 32/82/4 33/83/4 35/84/4
f 29/85/6 30/86/6 31/87/6 32/88/6
f 38/89/3 37/90/3 43/91/3 44/92/3
f 31/93/2 30/94/2 36/95/2 34/96/2
f 32/97/1 31/98/1 34/99/1 33/100/1
f 37/101/4 40/102/4 41/103/4 43/104/4
f 37/105/6 38/106/6 39/107/6 40/108/6
f 39/109/2 38/110/2 44/111/2 42/112/2
f 40/113/1 39/114/1 42/115/1 41/116/1
f 46/117/3 45/118/3 51/119/3 52/120/3
f 45/121/4 48/122/4 49/123/4 51/124/4
f 45/125/6 46/126/6 47/127/6 48/128/6
f 47/129/2 46/130/2 52/131/2 50/132/2
f 48/133/1 47/134/1 50/135/1 49/136/1
f 54/137/3 53/138/3 59/139/3 60/140/3
f 53/141/4 56/142/4 57/143/4 59/144/4
f 53/145/6 54/146/6 55/147/6 56/148/6
f 55/81/2 54/82/2 60/149/2 58/150/2
f 56/151/1 55/152/1 58/153/1 57/154/1
f 65/155/7 66/156/7 62/157/7 61/158/7
f 66/155/8 67/156/8 63/157/8 62/158/8
f 67/155/9 68/156/9 64/157/9 63/158/9
f 68/155/10 65/156/10 61/157/10 64/158/10
f 61/159/5 62/160/5 63/161/5 64/162/5
f 65/163/11 68/164/11 71/165/11
f 97/166/12 98/167/12 94/168/12 92/169/12
f 81/170/13 82/171/13 78/172/13 72/173/13
f 75/174/14 76/175/14 70/176/14
f 93/177/15 91/178/15 92/179/15 94/180/15
f 67/181/16 66/182/16 71/165/16
f 68/164/17 67/181/17 71/165/17
f 66/182/18 65/163/18 71/165/18
f 79/183/19 80/184/19 69/185/19 73/186/19
f 77/187/6 76/188/6 75/189/6 74/190/6
f 77/191/20 74/192/20 70/193/20
f 76/194/21 77/195/21 70/196/21
f 74/197/22 75/198/22 70/199/22
f 73/200/15 69/201/15 72/202/15 78/203/15
f 82/204/23 81/205/23 80/206/23 79/207/23
f 95/208/24 96/209/24 91/210/24 93/211/24
f 89/212/25 90/213/25 86/214/25 84/215/25
f 98/216/23 97/217/23 96/218/23 95/219/23
f 87/220/26 88/221/26 83/222/26 85/223/26
f 85/224/27 83/225/27 84/226/27 86/227/27
f 90/228/28 89/229/28 88/230/28 87/231/28
f 105/232/29 106/233/29 102/234/29 100/235/29
f 103/236/30 104/237/30 99/238/30 101/239/30
f 101/240/31 99/241/31 100/242/31 102/243/31
f 106/244/32 105/245/32 104/246/32 103/247/32
f 107/248/33 108/249/33 110/250/33 109/251/33
f 109/251/34 110/250/34 112/252/34 111/253/34
f 111/253/35 112/252/35 114/254/35 113/255/35
f 113/255/36 114/254/36 116/256/36 115/257/36
f 115/258/37 116/259/37 118/260/37 117/261/37
f 117/261/38 118/260/38 120/262/38 119/263/38
f 119/263/39 120/262/39 122/264/39 121/265/39
f 121/265/40 122/264/40 124/266/40 123/267/40
f 123/267/41 124/266/41 126/268/41 125/269/41
f 125/269/42 126/268/42 128/270/42 127/271/42
f 127/271/43 128/270/43 130/272/43 129/273/43
f 129/273/44 130/272/44 132/274/44 131/275/44
f 131/276/45 132/277/45 134/278/45 133/279/45
f 133/279/46 134/278/46 136/280/46 135/281/46
f 135/281/47 136/280/47 138/282/47 137/283/47
f 137/283/48 138/282/48 140/284/48 139/285/48
f 139/285/49 140/284/49 142/286/49 141/287/49
f 141/287/50 142/286/50 144/288/50 143/289/50
f 143/289/51 144/288/51 146/290/51 145/291/51
f 145/291/52 146/290/52 148/292/52 147/293/52
f 147/294/53 148/295/53 150/296/53 149/297/53
f 149/297/54 150/296/54 152/298/54 151/299/54
f 151/299/55 152/298/55 154/300/55 153/301/55
f 153/301/56 154/300/56 156/302/56 155/303/56
f 155/303/57 156/302/57 158/304/57 157/305/57
f 157/305/58 158/304/58 160/306/58 159/307/58
f 159/307/59 160/306/59 162/308/59 161/309/59
f 161/309/60 162/308/60 164/310/60 163/311/60
f 163/312/61 164/313/61 166/314/61 165/315/61
f 165/315/62 166/314/62 168/316/62 167/317/62
f 110/318/6 108/319/6 170/320/6 168/321/6 166/322/6 164/323/6 162/324/6 160/325/6 158/326/6 156/327/6 154/328/6 152/329/6 150/330/6 148/331/6 146/332/6 144/333/6 142/334/6 140/335/6 138/336/6 136/337/6 134/338/6 132/339/6 130/340/6 128/341/6 126/342/6 124/343/6 122/344/6 120/345/6 118/346/6 116/347/6 114/348/6 112/349/6
f 169/350/63 170/351/63 108/249/63 107/248/63
f 167/317/64 168/316/64 170/351/64 169/350/64
