# 3ds Max Wavefront OBJ Exporter v0.97b - (c)2007 guruware
# File Created: 18.06.2015 02:27:00

#
# object Prism001
#

v  29.2105 10.0000 17.2478
v  24.2105 10.0000 20.1345
v  34.2105 10.0000 20.1345
v  29.2105 10.0000 11.4743
v  24.2105 0.0000 20.1345
v  34.2105 0.0000 20.1345
v  29.2105 0.0000 11.4743
v  29.2105 0.0000 17.2478
# 8 vertices

vn 0.0000 1.0000 -0.0000
vn 0.0000 0.0000 1.0000
vn 0.8660 0.0000 -0.5000
vn -0.8660 0.0000 -0.5000
vn 0.0000 -1.0000 -0.0000
# 5 vertex normals

vt 0.5000 0.3333 0.0000
vt -0.0000 0.0000 0.0000
vt 1.0000 0.0000 0.0000
vt 0.5000 1.0000 0.0000
vt 0.0000 1.0000 0.0000
vt 0.0000 0.0000 0.0000
vt 0.3333 0.0000 0.0000
vt 0.3333 1.0000 0.0000
vt 0.6667 0.0000 0.0000
vt 0.6667 1.0000 0.0000
vt 1.0000 1.0000 0.0000
vt 0.5000 0.6667 0.0000
vt 0.5000 0.0000 0.0000
# 13 texture coords

g Prism001
s 1
f 1/1/1 2/2/1 3/3/1 
f 1/1/1 3/3/1 4/4/1 
f 1/1/1 4/4/1 2/2/1 
s 2
f 2/5/2 5/6/2 6/7/2 3/8/2 
s 4
f 3/8/3 6/7/3 7/9/3 4/10/3 
s 8
f 4/10/4 7/9/4 5/3/4 2/11/4 
s 1
f 5/11/5 8/12/5 6/5/5 
f 6/5/5 8/12/5 7/13/5 
f 7/13/5 8/12/5 5/11/5 
# 3 polygons - 6 triangles

