# Blender v2.74 (sub 0) OBJ File: 'Archcanal.blend'
# www.blender.org
mtllib Archcanal.mtl
o Cube_Cube.001
v -5.400000 3.187349 0.400000
v -5.400000 3.187349 -0.400000
v 5.400000 3.187349 -0.400000
v 5.400000 3.187349 0.400000
v -5.400000 3.571349 0.400000
v -5.400000 3.571349 -0.400000
v 5.400000 3.571349 -0.400000
v 5.400000 3.571349 0.400000
v -5.400000 3.751348 0.000000
v -5.400000 3.187349 0.000000
v 5.400000 3.751348 0.000000
v 5.400000 3.187349 0.000000
v 0.400000 3.000000 0.384000
v 0.400000 3.000000 -0.384000
v -0.400000 3.000000 -0.384000
v -0.400000 3.000000 0.384000
v 5.100000 3.000000 0.384000
v 5.100000 3.000000 -0.384000
v 5.900000 3.000000 -0.384000
v 5.900000 3.000000 0.384000
v 5.000000 0.000000 0.480000
v 5.000000 0.000000 -0.480000
v 6.000000 0.000000 -0.480000
v 6.000000 0.000000 0.480000
v 5.020000 3.100000 0.460800
v 5.020000 3.100000 -0.460800
v 5.980000 3.100000 -0.460800
v 5.980000 3.100000 0.460800
v 5.020000 3.800000 0.460800
v 5.020000 3.800000 -0.460800
v 5.980000 3.800000 -0.460800
v 5.980000 3.800000 0.460800
v -0.500000 0.000000 0.480000
v -0.500000 0.000000 -0.480000
v 0.500000 0.000000 -0.480000
v 0.500000 0.000000 0.480000
v -0.480000 3.100000 0.460800
v -0.480000 3.100000 -0.460800
v 0.480000 3.100000 -0.460800
v 0.480000 3.100000 0.460800
v -0.480000 3.800000 0.460800
v -0.480000 3.800000 -0.460800
v 0.480000 3.800000 -0.460800
v 0.480000 3.800000 0.460800
v -5.900000 3.000000 0.384000
v -5.900000 3.000000 -0.384000
v -5.100000 3.000000 -0.384000
v -5.100000 3.000000 0.384000
v -6.000000 0.000000 0.480000
v -6.000000 0.000000 -0.480000
v -5.000000 0.000000 -0.480000
v -5.000000 0.000000 0.480000
v -5.980000 3.100000 0.460800
v -5.980000 3.100000 -0.460800
v -5.020000 3.100000 -0.460800
v -5.020000 3.100000 0.460800
v -5.980000 3.800000 0.460800
v -5.980000 3.800000 -0.460800
v -5.020000 3.800000 -0.460800
v -5.020000 3.800000 0.460800
v 4.900000 3.790000 0.600000
v 4.900000 3.790000 -0.600000
v 6.100000 3.790000 -0.600000
v 6.100000 3.790000 0.600000
v 5.212000 4.290000 0.048000
v 5.212000 4.290000 -0.048000
v 5.788000 4.290000 -0.048000
v 5.788000 4.290000 0.048000
v -0.600000 3.790000 0.600000
v -0.600000 3.790000 -0.600000
v 0.600000 3.790000 -0.600000
v 0.600000 3.790000 0.600000
v -0.288000 4.290000 0.048000
v -0.288000 4.290000 -0.048000
v 0.288000 4.290000 -0.048000
v 0.288000 4.290000 0.048000
v -6.100000 3.790000 0.600000
v -6.100000 3.790000 -0.600000
v -4.900000 3.790000 -0.600000
v -4.900000 3.790000 0.600000
v -5.788000 4.290000 0.048000
v -5.788000 4.290000 -0.048000
v -5.212000 4.290000 -0.048000
v -5.212000 4.290000 0.048000
vt 0.578610 0.924369
vt 0.586052 0.907562
vt 0.601928 0.907562
vt 0.601928 0.924369
vt 0.399687 0.200783
vt 0.026062 0.200783
vt 0.026062 0.169617
vt 0.399687 0.169617
vt 0.934814 0.918755
vt 0.942255 0.901948
vt 0.958131 0.901948
vt 0.958131 0.918755
vt 0.020937 0.169192
vt 0.405045 0.169192
vt 0.405045 0.201198
vt 0.020937 0.201199
vt 0.354930 0.332469
vt 0.354930 0.349216
vt 0.056841 0.349217
vt 0.056841 0.332469
vt 0.404507 0.237902
vt 0.404507 0.271012
vt 0.022468 0.271012
vt 0.022468 0.237902
vt 0.404508 0.202575
vt 0.022463 0.202574
vt 0.354930 0.315721
vt 0.056841 0.315721
vt 0.942255 0.935562
vt 0.958131 0.935562
vt 0.586052 0.941176
vt 0.601928 0.941176
vt 0.797431 0.407744
vt 0.775000 0.407744
vt 0.772196 0.282613
vt 0.800235 0.282613
vt 0.798858 0.409469
vt 0.775492 0.409469
vt 0.772572 0.283374
vt 0.801778 0.283374
vt 0.797963 0.407162
vt 0.775532 0.407162
vt 0.772729 0.282031
vt 0.800767 0.282031
vt 0.799120 0.408239
vt 0.775755 0.408239
vt 0.772834 0.282144
vt 0.802041 0.282144
vt 0.801456 0.412396
vt 0.773418 0.412396
vt 0.774588 0.396541
vt 0.800164 0.396541
vt 0.802721 0.400698
vt 0.772030 0.400698
vt 0.795066 0.396541
vt 0.778025 0.396541
vt 0.775894 0.270446
vt 0.797196 0.270446
vt 0.800370 0.395797
vt 0.776311 0.395797
vt 0.773303 0.270666
vt 0.803378 0.270666
vt 0.799183 0.395073
vt 0.775906 0.395073
vt 0.772996 0.268977
vt 0.802092 0.268977
vt 0.799409 0.395577
vt 0.774857 0.395577
vt 0.771788 0.270446
vt 0.802478 0.270446
vt 0.771284 0.506348
vt 0.800744 0.506348
vt 0.800744 0.535758
vt 0.771284 0.535758
vt 0.802776 0.399414
vt 0.773905 0.399414
vt 0.801510 0.399230
vt 0.773578 0.399230
vt 0.801865 0.399194
vt 0.772401 0.399194
vt 0.075166 0.233295
vt 0.071133 0.233295
vt 0.047939 0.210558
vt 0.098360 0.210558
vt 0.802776 0.428456
vt 0.773905 0.428456
vt 0.801510 0.428639
vt 0.773578 0.428639
vt 0.801865 0.428237
vt 0.772401 0.428237
vt 0.771468 0.506230
vt 0.800866 0.506230
vt 0.800866 0.535639
vt 0.771468 0.535639
vt 0.800206 0.410780
vt 0.773289 0.410780
vt 0.801194 0.413627
vt 0.773156 0.413627
vt 0.799674 0.411362
vt 0.772757 0.411362
vt 0.800206 0.439822
vt 0.773289 0.439822
vt 0.801194 0.443036
vt 0.773156 0.443036
vt 0.799674 0.440404
vt 0.772757 0.440404
vt 0.774785 0.189891
vt 0.798643 0.189891
vt 0.801029 0.194048
vt 0.772400 0.194048
vt 0.771803 0.063795
vt 0.801625 0.063795
vt 0.798171 0.188598
vt 0.775267 0.188598
vt 0.772404 0.063467
vt 0.801034 0.063467
vt 0.799295 0.190597
vt 0.775438 0.190597
vt 0.772456 0.064501
vt 0.802278 0.064501
vt 0.798117 0.188633
vt 0.775214 0.188633
vt 0.771433 0.506368
vt 0.800961 0.506368
vt 0.800961 0.535778
vt 0.771433 0.535778
vt 0.800461 0.192215
vt 0.772977 0.192215
vt 0.801681 0.194754
vt 0.773052 0.194754
vt 0.800408 0.192250
vt 0.772924 0.192250
vt 0.800461 0.221257
vt 0.772977 0.221257
vt 0.801681 0.224163
vt 0.773052 0.224163
vt 0.800408 0.221292
vt 0.772924 0.221292
vt 0.145098 0.231662
vt 0.141064 0.231662
vt 0.117871 0.208925
vt 0.168292 0.208925
vt 0.131940 0.236355
vt 0.107738 0.236355
vt 0.094628 0.207167
vt 0.145049 0.207167
vt 0.074934 0.233200
vt 0.070900 0.233200
vt 0.047707 0.210464
vt 0.098128 0.210464
vt 0.130613 0.232057
vt 0.106411 0.232057
vt 0.093302 0.210807
vt 0.143723 0.210807
vt 0.080301 0.363621
vt 0.080301 0.313200
vt 0.130544 0.313200
vt 0.130544 0.363621
vt 0.107738 0.240093
vt 0.131940 0.240093
vt 0.131967 0.236307
vt 0.107765 0.236307
vt 0.094655 0.207119
vt 0.145076 0.207119
vt 0.130585 0.231994
vt 0.106383 0.231994
vt 0.093274 0.210744
vt 0.143695 0.210744
vt 0.191487 0.364669
vt 0.191487 0.314249
vt 0.241730 0.314249
vt 0.241730 0.364669
vt 0.107765 0.240045
vt 0.131967 0.240045
vt 0.191236 0.229685
vt 0.187202 0.229685
vt 0.164009 0.206948
vt 0.214429 0.206948
vt 0.164831 0.235712
vt 0.140629 0.235712
vt 0.127520 0.206524
vt 0.177940 0.206524
vt 0.191527 0.229752
vt 0.187493 0.229752
vt 0.164299 0.207015
vt 0.214720 0.207015
vt 0.163558 0.234272
vt 0.139356 0.234272
vt 0.126247 0.213023
vt 0.176667 0.213023
vt 0.324585 0.362747
vt 0.324585 0.312326
vt 0.374828 0.312326
vt 0.374828 0.362747
vt 0.140629 0.239450
vt 0.164831 0.239450
vn -1.000000 0.000000 0.000000
vn 0.000000 0.000000 -1.000000
vn 1.000000 0.000000 0.000000
vn 0.000000 0.000000 1.000000
vn 0.000000 -1.000000 0.000000
vn 0.000000 0.911900 -0.410400
vn 0.000000 0.911900 0.410400
vn -0.999400 0.033300 0.000000
vn 0.000000 0.032000 -0.999500
vn 0.999400 0.033300 0.000000
vn 0.000000 0.032000 0.999500
vn 0.000000 -0.609100 0.793100
vn 0.780900 -0.624700 0.000000
vn 0.000000 -0.609100 -0.793100
vn -0.780900 -0.624700 0.000000
vn -0.848400 0.529400 0.000000
vn 0.000000 0.741200 -0.671300
vn 0.848400 0.529400 0.000000
vn 0.000000 0.741200 0.671300
vn 0.000000 1.000000 0.000000
usemtl Material.001
s off
f 9/1/1 6/2/1 2/3/1 10/4/1
f 6/5/2 7/6/2 3/7/2 2/8/2
f 11/9/3 8/10/3 4/11/3 12/12/3
f 8/13/4 5/14/4 1/15/4 4/16/4
f 10/17/5 2/18/5 3/19/5 12/20/5
f 11/21/6 7/22/6 6/23/6 9/24/6
f 8/25/7 11/21/7 9/24/7 5/26/7
f 1/27/5 10/17/5 12/20/5 4/28/5
f 7/29/3 11/9/3 12/12/3 3/30/3
f 5/31/1 9/1/1 10/4/1 1/32/1
f 16/33/8 15/34/8 34/35/8 33/36/8
f 15/37/9 14/38/9 35/39/9 34/40/9
f 14/41/10 13/42/10 36/43/10 35/44/10
f 13/45/11 16/46/11 33/47/11 36/48/11
f 16/46/12 13/45/12 40/49/12 37/50/12
f 17/51/12 20/52/12 28/53/12 25/54/12
f 20/55/11 17/56/11 21/57/11 24/58/11
f 19/59/10 20/60/10 24/61/10 23/62/10
f 18/63/9 19/64/9 23/65/9 22/66/9
f 17/67/8 18/68/8 22/69/8 21/70/8
f 25/71/4 28/72/4 32/73/4 29/74/4
f 20/60/13 19/59/13 27/75/13 28/76/13
f 19/64/14 18/63/14 26/77/14 27/78/14
f 18/68/15 17/67/15 25/79/15 26/80/15
f 73/81/16 74/82/16 70/83/16 69/84/16
f 28/76/3 27/75/3 31/85/3 32/86/3
f 27/78/2 26/77/2 30/87/2 31/88/2
f 26/80/1 25/79/1 29/89/1 30/90/1
f 37/91/4 40/92/4 44/93/4 41/94/4
f 13/42/13 14/41/13 39/95/13 40/96/13
f 14/38/14 15/37/14 38/97/14 39/98/14
f 15/34/15 16/33/15 37/99/15 38/100/15
f 40/96/3 39/95/3 43/101/3 44/102/3
f 39/98/2 38/97/2 42/103/2 43/104/2
f 38/100/1 37/99/1 41/105/1 42/106/1
f 45/107/12 48/108/12 56/109/12 53/110/12
f 48/108/11 45/107/11 49/111/11 52/112/11
f 47/113/10 48/114/10 52/115/10 51/116/10
f 46/117/9 47/118/9 51/119/9 50/120/9
f 45/121/8 46/122/8 50/115/8 49/116/8
f 53/123/4 56/124/4 60/125/4 57/126/4
f 48/114/13 47/113/13 55/127/13 56/128/13
f 47/118/14 46/117/14 54/129/14 55/130/14
f 46/122/15 45/121/15 53/131/15 54/132/15
f 56/128/3 55/127/3 59/133/3 60/134/3
f 55/130/2 54/129/2 58/135/2 59/136/2
f 54/132/1 53/131/1 57/137/1 58/138/1
f 65/139/16 66/140/16 62/141/16 61/142/16
f 66/143/17 67/144/17 63/145/17 62/146/17
f 67/147/18 68/148/18 64/149/18 63/150/18
f 68/151/19 65/152/19 61/153/19 64/154/19
f 61/155/5 62/156/5 63/157/5 64/158/5
f 68/159/20 67/144/20 66/143/20 65/160/20
f 74/161/17 75/162/17 71/163/17 70/164/17
f 75/147/18 76/148/18 72/149/18 71/150/18
f 76/165/19 73/166/19 69/167/19 72/168/19
f 69/169/5 70/170/5 71/171/5 72/172/5
f 76/173/20 75/162/20 74/161/20 73/174/20
f 81/175/16 82/176/16 78/177/16 77/178/16
f 82/179/17 83/180/17 79/181/17 78/182/17
f 83/183/18 84/184/18 80/185/18 79/186/18
f 84/187/19 81/188/19 77/189/19 80/190/19
f 77/191/5 78/192/5 79/193/5 80/194/5
f 84/195/20 83/180/20 82/179/20 81/196/20
