# Blender v2.74 (sub 0) OBJ File: 'Trost house 5.blend'
# www.blender.org
mtllib Trost house 5.mtl
o Cube_Cube.002
v -1.978182 2.000000 -1.134546
v -1.978183 2.000000 0.865454
v 2.021817 2.000000 0.865455
v 2.021818 2.000000 -1.134545
v -1.978182 0.000000 -1.134546
v -1.978183 0.000000 0.865454
v 2.021817 0.000000 0.865455
v 2.021818 0.000000 -1.134545
v -1.978182 2.800000 -0.414546
v -1.978183 2.800000 0.145454
v 2.021817 2.800000 0.145455
v 2.021817 2.800000 -0.414545
v -1.186182 2.000000 0.429454
v -1.186182 2.000000 0.861454
v -1.360182 2.000000 0.861454
v -1.360182 2.000000 0.429454
v -1.186182 2.240000 0.429454
v -1.186182 2.240000 0.861454
v -1.360182 2.240000 0.861454
v -1.360182 2.240000 0.429454
v -0.366183 2.000000 0.429454
v -0.366183 2.000000 0.861454
v -0.540183 2.000000 0.861454
v -0.540183 2.000000 0.429454
v -0.366183 2.240000 0.429454
v -0.366183 2.240000 0.861454
v -0.540183 2.240000 0.861454
v -0.540183 2.240000 0.429454
v 0.553818 2.000000 0.429455
v 0.553817 2.000000 0.861455
v 0.379817 2.000000 0.861454
v 0.379817 2.000000 0.429455
v 0.553818 2.240000 0.429455
v 0.553817 2.240000 0.861455
v 0.379817 2.240000 0.861454
v 0.379817 2.240000 0.429455
v 1.373817 2.000000 0.429455
v 1.373817 2.000000 0.861455
v 1.199817 2.000000 0.861455
v 1.199817 2.000000 0.429455
v 1.373817 2.240000 0.429455
v 1.373817 2.240000 0.861455
v 1.199817 2.240000 0.861455
v 1.199817 2.240000 0.429455
v -1.944001 1.400000 0.879550
v 2.004001 1.400000 0.769550
v -1.944001 1.400000 0.769550
v 2.004001 1.400000 0.879550
v -1.944001 1.500000 0.879550
v -1.944001 0.600000 0.769550
v -1.944001 1.500000 0.769550
v 2.004001 0.600000 0.769550
v -1.944001 0.600000 0.879550
v 2.004001 1.500000 0.879550
v 2.004001 1.500000 0.769550
v 2.004001 0.600000 0.879550
v -1.944001 0.700000 0.879550
v -1.944001 0.700000 0.769550
v 2.004001 0.700000 0.879550
v 2.004001 0.700000 0.769550
v 1.885000 1.902272 0.799550
v 1.885000 0.730366 0.799550
v 1.885000 1.902272 0.899550
v 1.885000 0.730366 0.899550
v 2.015000 1.902272 0.899550
v 2.015000 1.902272 0.799550
v 2.015000 0.730367 0.899550
v 2.015000 0.730367 0.799550
v 1.885000 2.002272 0.759550
v 1.885000 2.002272 0.859550
v 2.015000 2.002272 0.859550
v 2.015000 2.002272 0.759550
v 0.885000 1.902272 0.799550
v 0.885000 0.730366 0.799550
v 0.885000 1.902272 0.899550
v 0.885000 0.730366 0.899550
v 1.015000 1.902272 0.899550
v 1.015000 1.902272 0.799550
v 1.015000 0.730367 0.899550
v 1.015000 0.730367 0.799550
v 0.885000 2.002272 0.759550
v 0.885000 2.002272 0.859550
v 1.015000 2.002272 0.859550
v 1.015000 2.002272 0.759550
v -0.035000 1.902272 0.799550
v -0.035000 0.730366 0.799550
v -0.035000 1.902272 0.899550
v -0.035000 0.730366 0.899550
v 0.095000 1.902272 0.899550
v 0.095000 1.902272 0.799550
v 0.095000 0.730367 0.899550
v 0.095000 0.730367 0.799550
v -0.035000 2.002272 0.759550
v -0.035000 2.002272 0.859550
v 0.095000 2.002272 0.859550
v 0.095000 2.002272 0.759550
v -1.035000 1.902272 0.799550
v -1.035000 0.730366 0.799550
v -1.035000 1.902272 0.899550
v -1.035000 0.730366 0.899550
v -0.905000 1.902272 0.899550
v -0.905000 1.902272 0.799550
v -0.905000 0.730367 0.899550
v -0.905000 0.730367 0.799550
v -1.035000 2.002272 0.759550
v -1.035000 2.002272 0.859550
v -0.905000 2.002272 0.859550
v -0.905000 2.002272 0.759550
v -1.975000 1.902272 0.799550
v -1.975000 0.730366 0.799550
v -1.975000 1.902272 0.899550
v -1.975000 0.730366 0.899550
v -1.845000 1.902272 0.899550
v -1.845000 1.902272 0.799550
v -1.845000 0.730367 0.899550
v -1.845000 0.730367 0.799550
v -1.975000 2.002272 0.759550
v -1.975000 2.002272 0.859550
v -1.845000 2.002272 0.859550
v -1.845000 2.002272 0.759550
v 1.970667 1.400000 -1.147952
v -1.977334 1.400000 -1.037952
v 1.970667 1.400000 -1.037952
v -1.977334 1.400000 -1.147952
v 1.970667 1.500000 -1.147952
v 1.970667 0.600000 -1.037952
v 1.970667 1.500000 -1.037952
v -1.977334 0.600000 -1.037952
v 1.970667 0.600000 -1.147952
v -1.977334 1.500000 -1.147952
v -1.977334 1.500000 -1.037952
v -1.977334 0.600000 -1.147952
v 1.970667 0.700000 -1.147952
v 1.970667 0.700000 -1.037952
v -1.977334 0.700000 -1.147952
v -1.977334 0.700000 -1.037952
v -1.844958 1.902272 -1.067952
v -1.844959 0.730366 -1.067952
v -1.844958 1.902272 -1.167953
v -1.844959 0.730366 -1.167952
v -1.974959 1.902272 -1.167953
v -1.974959 1.902272 -1.067952
v -1.974959 0.730367 -1.167952
v -1.974959 0.730367 -1.067952
v 0.505000 0.000096 0.865000
v 0.505000 0.000096 0.775000
v 0.395000 0.000096 0.865000
v 0.395000 0.000096 0.775000
v -1.844958 2.002272 -1.127953
v -1.974959 2.002272 -1.127952
v -0.844958 1.902272 -1.067952
v -0.844959 0.730366 -1.067952
v -0.844958 1.902272 -1.167952
v -0.844959 0.730366 -1.167952
v -0.974959 1.902272 -1.167952
v -0.974959 1.902272 -1.067952
v -0.974959 0.730367 -1.167952
v -0.974959 0.730367 -1.067952
v 0.505000 0.599904 0.865000
v 0.505000 0.599904 0.775000
v 0.395000 0.599904 0.775000
v 0.395000 0.599904 0.865000
v -0.844958 2.002272 -1.127952
v -0.974959 2.002272 -1.127952
v 0.075042 1.902272 -1.067952
v 0.075041 0.730366 -1.067952
v 0.075042 1.902272 -1.167952
v 0.075041 0.730366 -1.167952
v -0.054959 1.902272 -1.167952
v -0.054959 1.902272 -1.067952
v -0.054959 0.730367 -1.167952
v -0.054959 0.730367 -1.067952
v -0.505000 0.000096 0.775000
v -0.505000 0.000096 0.865000
v -0.395000 0.000096 0.775000
v -0.395000 0.000096 0.865000
v 0.075042 2.002272 -1.127952
v -0.054959 2.002272 -1.127952
v 1.075042 1.902272 -1.067952
v 1.075041 0.730366 -1.067952
v 1.075042 1.902272 -1.167952
v 1.075041 0.730366 -1.167952
v 0.945041 1.902272 -1.167952
v 0.945041 1.902272 -1.067952
v 0.945041 0.730367 -1.167952
v 0.945041 0.730367 -1.067952
v -0.505000 0.599904 0.865000
v -0.505000 0.599904 0.775000
v -0.395000 0.599904 0.775000
v -0.395000 0.599904 0.865000
v 1.075042 2.002272 -1.127952
v 0.945041 2.002272 -1.127952
v 2.015042 1.902272 -1.067952
v 2.015041 0.730366 -1.067951
v 2.015042 1.902272 -1.167952
v 2.015041 0.730366 -1.167951
v 1.885041 1.902272 -1.167952
v 1.885041 1.902272 -1.067952
v 1.885041 0.730367 -1.167951
v 1.885041 0.730367 -1.067951
v -1.195000 0.000096 0.865000
v -1.195000 0.000096 0.775000
v -1.305000 0.000096 0.865000
v -1.305000 0.000096 0.775000
v 2.015042 2.002272 -1.127952
v 1.885041 2.002272 -1.127952
v 2.020307 -0.000415 0.125011
v -1.978255 -0.000004 0.125011
v 2.021817 0.000000 0.198788
v 2.021818 0.000000 -0.467879
v 2.021817 2.000000 -0.467879
v 2.021817 2.000000 0.198788
v -1.978183 1.333333 0.865454
v -1.978183 0.666667 0.865454
v 2.021818 0.666667 -1.134545
v 2.021818 1.333333 -1.134545
v 2.021817 1.333333 0.865455
v 2.021817 0.666667 0.865455
v -1.978182 1.333333 -1.134546
v -1.978182 0.666667 -1.134546
v 2.021817 1.333333 -0.467879
v 2.021818 0.666667 -0.467879
v 2.021817 1.333333 0.198788
v 2.021817 0.666667 0.198788
v -1.978183 0.000000 0.198788
v -1.978183 0.666667 0.198788
v -0.055000 0.000096 0.775000
v -0.055000 0.000096 0.865000
v 0.055000 0.000096 0.775000
v 0.055000 0.000096 0.865000
v -0.055000 0.599904 0.865000
v -0.055000 0.599904 0.775000
v 0.055000 0.599904 0.775000
v 0.055000 0.599904 0.865000
v 0.795000 0.000096 0.775000
v 0.795000 0.000096 0.865000
v 0.905000 0.000096 0.775000
v 0.905000 0.000096 0.865000
v 0.795000 0.599904 0.865000
v 0.795000 0.599904 0.775000
v 0.905000 0.599904 0.775000
v 0.905000 0.599904 0.865000
v 1.595000 0.000096 0.775000
v 1.595000 0.000096 0.865000
v 1.705000 0.000096 0.775000
v 1.705000 0.000096 0.865000
v 1.595000 0.599904 0.865000
v 1.595000 0.599904 0.775000
v 1.705000 0.599904 0.775000
v 1.705000 0.599904 0.865000
v -0.905000 0.000096 0.775000
v -0.905000 0.000096 0.865000
v -0.795000 0.000096 0.775000
v -0.795000 0.000096 0.865000
v -0.905000 0.599904 0.865000
v -0.905000 0.599904 0.775000
v -0.795000 0.599904 0.775000
v -0.795000 0.599904 0.865000
v -1.705000 0.000096 0.775000
v -1.705000 0.000096 0.865000
v -1.595000 0.000096 0.775000
v -1.595000 0.000096 0.865000
v -1.705000 0.599904 0.865000
v -1.705000 0.599904 0.775000
v -1.595000 0.599904 0.775000
v -1.595000 0.599904 0.865000
v -1.305000 0.599904 0.865000
v -1.305000 0.599904 0.775000
v -1.195000 0.599904 0.775000
v -1.195000 0.599904 0.865000
v 1.305000 0.000096 0.865000
v 1.305000 0.000096 0.775000
v 1.195000 0.000096 0.865000
v 1.195000 0.000096 0.775000
v 1.195000 0.599904 0.865000
v 1.195000 0.599904 0.775000
v 1.305000 0.599904 0.775000
v 1.305000 0.599904 0.865000
v 2.020939 0.000000 0.865455
v 2.020939 0.000000 0.198788
v 2.020939 0.666667 0.865455
v 2.020939 0.666667 0.198788
v -1.975450 0.000000 -1.134546
v -1.975450 0.000000 0.865454
v -1.975450 0.666667 0.865454
v -1.975450 0.666667 -1.134546
vt 0.249818 0.663029
vt 0.000000 0.663029
vt 0.000000 0.568310
vt 0.249818 0.568310
vt 0.275050 0.568310
vt 0.275050 0.000000
vt 0.357769 0.000000
vt 0.357769 0.568310
vt 0.333090 0.663029
vt 0.333090 0.568311
vt 0.109611 0.568310
vt 0.000000 0.000000
vt 0.109611 0.000000
vt 0.467380 0.568310
vt 0.467380 0.000000
vt 0.089934 0.966128
vt 0.000000 0.852466
vt 0.249818 0.852466
vt 0.785488 0.568310
vt 0.715539 0.568310
vt 0.715539 0.000000
vt 0.785488 0.000000
vt 0.159883 0.966128
vt 0.339752 0.966128
vt 0.333090 0.852466
vt 0.416362 0.852466
vt 0.499634 0.852467
vt 0.409700 0.966128
vt 0.499634 0.915480
vt 0.499634 0.854103
vt 0.529612 0.854103
vt 0.529612 0.915480
vt 0.000000 0.966128
vt 0.021734 0.966128
vt 0.021734 1.000000
vt 0.000000 1.000000
vt 0.599143 0.915477
vt 0.599143 0.854100
vt 0.629121 0.854100
vt 0.629121 0.915477
vt 0.823889 0.976855
vt 0.823889 0.915477
vt 0.845623 0.915477
vt 0.845623 0.976855
vt 0.599143 0.976855
vt 0.569165 0.976855
vt 0.569165 0.915478
vt 0.856865 0.854100
vt 0.878599 0.854100
vt 0.878599 0.887972
vt 0.856865 0.887972
vt 0.569165 0.854100
vt 0.802155 0.976855
vt 0.802155 0.915477
vt 0.826887 0.854100
vt 0.826887 0.915477
vt 0.796909 0.915477
vt 0.796909 0.854100
vt 0.043468 0.966128
vt 0.065202 0.966128
vt 0.065202 1.000000
vt 0.043468 1.000000
vt 0.659099 0.854100
vt 0.659099 0.915477
vt 0.732546 0.915477
vt 0.732546 0.976855
vt 0.710811 0.976855
vt 0.710811 0.915477
vt 0.539187 0.976855
vt 0.539187 0.915478
vt 0.867357 0.915477
vt 0.867357 0.949349
vt 0.845623 0.949349
vt 0.539187 0.854100
vt 0.736953 0.976855
vt 0.736953 0.915477
vt 0.758687 0.915477
vt 0.758687 0.976855
vt 0.897823 0.560923
vt 0.897823 0.000000
vt 0.910231 0.000000
vt 0.910231 0.560923
vt 0.922639 0.000000
vt 0.922639 0.560923
vt 0.835452 0.560923
vt 0.822961 0.560923
vt 0.822961 0.000000
vt 0.835452 0.000000
vt 0.847943 0.000000
vt 0.860433 0.000000
vt 0.860434 0.560923
vt 0.847943 0.560923
vt 0.810470 0.560923
vt 0.810470 0.000000
vt 0.756729 0.583493
vt 0.744254 0.582784
vt 0.739887 0.568310
vt 0.752362 0.569019
vt 0.967524 0.104632
vt 0.967524 0.270028
vt 0.951285 0.270028
vt 0.951285 0.104632
vt 0.578740 0.838918
vt 0.566265 0.839626
vt 0.558963 0.673332
vt 0.571439 0.672623
vt 0.749428 0.749787
vt 0.736953 0.749078
vt 0.574373 0.853391
vt 0.561898 0.854100
vt 0.967524 0.284796
vt 0.951285 0.284796
vt 0.776506 0.583493
vt 0.764031 0.582784
vt 0.759663 0.568310
vt 0.772139 0.569019
vt 0.992594 0.672943
vt 0.992594 0.838339
vt 0.976356 0.838339
vt 0.976356 0.672943
vt 0.618293 0.838918
vt 0.605818 0.839626
vt 0.598517 0.673332
vt 0.610992 0.672623
vt 0.769205 0.749787
vt 0.756729 0.749078
vt 0.613926 0.853391
vt 0.601451 0.854100
vt 0.992594 0.853106
vt 0.976356 0.853106
vt 0.835835 0.583493
vt 0.823360 0.582784
vt 0.818993 0.568310
vt 0.831468 0.569019
vt 1.000000 0.104632
vt 1.000000 0.270028
vt 0.983762 0.270028
vt 0.983762 0.104632
vt 0.558963 0.838918
vt 0.546488 0.839626
vt 0.539187 0.673332
vt 0.551662 0.672623
vt 0.828534 0.749787
vt 0.816059 0.749078
vt 0.554596 0.853391
vt 0.542121 0.854100
vt 1.000000 0.284796
vt 0.983762 0.284796
vt 0.816059 0.583493
vt 0.803583 0.582784
vt 0.799216 0.568310
vt 0.811692 0.569019
vt 0.598517 0.838918
vt 0.586041 0.839626
vt 0.578740 0.673332
vt 0.591215 0.672623
vt 0.808757 0.749787
vt 0.796282 0.749078
vt 0.594150 0.853391
vt 0.581674 0.854100
vt 0.855612 0.583493
vt 0.843136 0.582784
vt 0.838769 0.568310
vt 0.851245 0.569019
vt 0.960118 0.748474
vt 0.960118 0.583078
vt 0.976356 0.583078
vt 0.976356 0.748474
vt 0.638070 0.838918
vt 0.625595 0.839626
vt 0.618293 0.673332
vt 0.630769 0.672623
vt 0.848310 0.749787
vt 0.835835 0.749078
vt 0.633703 0.853391
vt 0.621228 0.854100
vt 0.960118 0.568310
vt 0.976356 0.568310
vt 0.935047 0.000000
vt 0.935047 0.560923
vt 0.885415 0.560923
vt 0.885415 0.000000
vt 0.872924 0.000000
vt 0.872924 0.560923
vt 0.797979 0.560923
vt 0.797979 0.000000
vt 0.785488 0.560923
vt 0.911403 0.748474
vt 0.911403 0.583078
vt 0.927641 0.583078
vt 0.927641 0.748474
vt 0.796282 0.838917
vt 0.783807 0.839625
vt 0.776506 0.673331
vt 0.788981 0.672623
vt 0.729652 0.749787
vt 0.717176 0.749078
vt 0.724477 0.582784
vt 0.736953 0.583493
vt 0.565752 0.840565
vt 0.554587 0.840565
vt 0.554587 0.750000
vt 0.565752 0.750000
vt 0.491316 0.659435
vt 0.504962 0.659435
vt 0.504962 0.750000
vt 0.491316 0.750000
vt 0.518609 0.750000
vt 0.529775 0.750000
vt 0.529775 0.840565
vt 0.518609 0.840565
vt 0.911403 0.568310
vt 0.927641 0.568310
vt 0.895165 0.748474
vt 0.895165 0.583078
vt 0.895165 0.838917
vt 0.882689 0.839625
vt 0.875388 0.673331
vt 0.887863 0.672623
vt 0.690098 0.749787
vt 0.677623 0.749078
vt 0.684924 0.582784
vt 0.697400 0.583493
vt 0.436729 0.750000
vt 0.450376 0.750000
vt 0.450376 0.840565
vt 0.436729 0.840565
vt 0.568234 0.750000
vt 0.557068 0.750000
vt 0.557068 0.659435
vt 0.568234 0.659435
vt 0.464022 0.659435
vt 0.477669 0.659435
vt 0.477669 0.750000
vt 0.464022 0.750000
vt 0.895165 0.568310
vt 0.943879 0.583078
vt 0.943879 0.748474
vt 0.539187 0.838917
vt 0.526712 0.839625
vt 0.519410 0.673331
vt 0.531886 0.672623
vt 0.709875 0.749787
vt 0.697400 0.749078
vt 0.704701 0.582784
vt 0.717176 0.583493
vt 0.450376 0.659435
vt 0.455000 0.850000
vt 0.400000 0.850000
vt 0.400000 0.650000
vt 0.455000 0.650000
vt 0.488835 0.750000
vt 0.488835 0.840565
vt 0.477669 0.840565
vt 0.943879 0.568310
vt 0.935047 0.180163
vt 0.935047 0.014767
vt 0.951285 0.014767
vt 0.951285 0.180163
vt 0.875388 0.838917
vt 0.862913 0.839625
vt 0.855612 0.673331
vt 0.868087 0.672623
vt 0.650545 0.749787
vt 0.638070 0.749078
vt 0.645371 0.582784
vt 0.657847 0.583493
vt 0.510000 0.650000
vt 0.510000 0.850000
vt 0.555000 0.650000
vt 0.555000 0.850000
vt 0.600000 0.850000
vt 0.600000 0.650000
vt 0.951285 0.000000
vt 0.519410 0.838917
vt 0.506935 0.839625
vt 0.499634 0.673331
vt 0.512109 0.672623
vt 0.670322 0.749787
vt 0.657847 0.749078
vt 0.665148 0.582784
vt 0.677623 0.583493
vt 0.464022 0.840565
vt 0.516128 0.750000
vt 0.516128 0.840565
vt 0.504962 0.840565
vt 0.423082 0.840565
vt 0.423082 0.750000
vt 0.249634 0.663031
vt 0.166362 0.663030
vt 0.166362 0.568312
vt 0.249634 0.568312
vt 0.321842 0.663030
vt 0.238570 0.663029
vt 0.238570 0.568311
vt 0.321842 0.568312
vt 0.333090 0.757747
vt 0.416362 0.757748
vt 0.000061 0.640140
vt 0.999957 0.640140
vt 0.999579 0.825231
vt 0.000043 0.825232
vt 0.499634 0.757749
vt 0.416362 0.663030
vt 0.499634 0.663031
vt 0.249818 0.757747
vt 0.249681 0.663030
vt 0.249681 0.757748
vt 0.550100 0.000000
vt 0.550100 0.568310
vt 0.632819 0.000000
vt 0.632819 0.568310
vt 0.192330 0.000000
vt 0.192330 0.568310
vt 0.000000 0.757747
vt 0.126840 0.693311
vt 0.126840 0.788029
vt 0.914340 0.788029
vt 0.914340 0.693311
vt 0.502481 0.750000
vt 0.502481 0.840565
vt 0.491316 0.840565
vt 0.518609 0.659435
vt 0.545903 0.659435
vt 0.545903 0.750000
vt 0.532256 0.750000
vt 0.543421 0.750000
vt 0.543421 0.840565
vt 0.532256 0.840565
vt 0.423082 0.659435
vt 0.436729 0.659435
vt 0.576918 0.840565
vt 0.576918 0.750000
vt 0.409435 0.750000
vt 0.409435 0.840565
vt 0.461541 0.750000
vt 0.461541 0.840565
vt 0.532256 0.659435
vt 0.588083 0.840565
vt 0.588083 0.750000
vt 0.409435 0.659435
vt 0.579399 0.750000
vt 0.579399 0.659435
vt 0.590565 0.750000
vt 0.590565 0.659435
vn -1.000000 0.000000 -0.000000
vn 0.000000 0.000000 -1.000000
vn 1.000000 0.000000 0.000000
vn 0.000000 0.669000 -0.743300
vn -0.000000 0.669000 0.743300
vn 0.000000 1.000000 0.000000
vn 0.000000 0.000000 1.000000
vn 0.000000 -1.000000 0.000000
vn 0.000000 0.371400 0.928500
vn -0.000000 0.371400 -0.928500
vn 0.000100 1.000000 -0.000300
usemtl Material
s off
f 214/1/1 220/2/1 5/3/1 6/4/1
f 220/5/2 215/6/2 8/7/2 5/8/2
f 224/9/3 218/1/3 7/4/3 209/10/3
f 1/11/4 9/3/4 12/12/4 4/13/4
f 3/14/5 11/8/5 10/7/5 2/15/5
f 9/16/1 1/17/1 2/18/1
f 9/19/6 10/20/6 11/21/6 12/22/6
f 9/16/1 2/18/1 10/23/1
f 11/24/3 3/18/3 212/25/3 211/26/3 4/27/3
f 11/24/3 4/27/3 12/28/3
f 17/29/3 18/30/3 14/31/3 13/32/3
f 18/33/7 19/34/7 15/35/7 14/36/7
f 19/37/1 20/38/1 16/39/1 15/40/1
f 20/41/6 19/42/6 18/43/6 17/44/6
f 25/37/3 26/45/3 22/46/3 21/47/3
f 26/48/7 27/49/7 23/50/7 22/51/7
f 27/47/1 28/52/1 24/38/1 23/37/1
f 28/53/6 27/54/6 26/42/6 25/41/6
f 33/55/3 34/56/3 30/57/3 29/58/3
f 34/59/7 35/60/7 31/61/7 30/62/7
f 35/40/1 36/39/1 32/63/1 31/64/1
f 36/65/6 35/66/6 34/67/6 33/68/6
f 41/69/3 42/70/3 38/47/3 37/46/3
f 42/43/7 43/71/7 39/72/7 38/73/7
f 43/70/1 44/74/1 40/52/1 39/47/1
f 44/75/6 43/76/6 42/77/6 41/78/6
f 54/79/7 49/80/7 45/81/7 48/82/7
f 59/82/7 57/81/7 53/83/7 56/84/7
f 45/85/8 47/86/8 46/87/8 48/88/8
f 54/89/6 55/90/6 51/91/6 49/92/6
f 53/86/8 50/93/8 52/94/8 56/87/8
f 59/88/6 60/89/6 58/92/6 57/85/6
f 65/95/3 66/96/3 72/97/3 71/98/3
f 67/99/7 65/100/7 63/101/7 64/102/7
f 63/103/1 61/104/1 62/105/1 64/106/1
f 67/107/3 68/108/3 66/96/3 65/95/3
f 61/104/1 63/103/1 70/109/1 69/110/1
f 63/101/9 65/100/9 71/111/9 70/112/9
f 77/113/3 78/114/3 84/115/3 83/116/3
f 79/117/7 77/118/7 75/119/7 76/120/7
f 75/121/1 73/122/1 74/123/1 76/124/1
f 79/125/3 80/126/3 78/114/3 77/113/3
f 73/122/1 75/121/1 82/127/1 81/128/1
f 75/119/9 77/118/9 83/129/9 82/130/9
f 89/131/3 90/132/3 96/133/3 95/134/3
f 91/135/7 89/136/7 87/137/7 88/138/7
f 87/139/1 85/140/1 86/141/1 88/142/1
f 91/143/3 92/144/3 90/132/3 89/131/3
f 85/140/1 87/139/1 94/145/1 93/146/1
f 87/137/9 89/136/9 95/147/9 94/148/9
f 101/149/3 102/150/3 108/151/3 107/152/3
f 103/138/7 101/137/7 99/100/7 100/99/7
f 99/153/1 97/154/1 98/155/1 100/156/1
f 103/157/3 104/158/3 102/150/3 101/149/3
f 97/154/1 99/153/1 106/159/1 105/160/1
f 99/100/9 101/137/9 107/148/9 106/111/9
f 113/161/3 114/162/3 120/163/3 119/164/3
f 115/165/7 113/166/7 111/167/7 112/168/7
f 111/169/1 109/170/1 110/171/1 112/172/1
f 115/173/3 116/174/3 114/162/3 113/161/3
f 109/170/1 111/169/1 118/175/1 117/176/1
f 111/167/9 113/166/9 119/177/9 118/178/9
f 130/179/2 125/180/2 121/84/2 124/83/2
f 135/181/2 133/182/2 129/80/2 132/79/2
f 121/183/8 123/182/8 122/181/8 124/184/8
f 130/93/6 131/185/6 127/186/6 125/94/6
f 129/90/8 126/183/8 128/184/8 132/91/8
f 135/185/6 136/187/6 134/22/6 133/186/6
f 143/188/2 141/189/2 139/190/2 140/191/2
f 139/192/3 137/193/3 138/194/3 140/195/3
f 143/196/1 144/197/1 142/198/1 141/199/1
f 160/200/3 159/201/3 145/202/3 146/203/3
f 161/204/2 160/205/2 146/206/2 148/207/2
f 162/208/1 161/209/1 148/210/1 147/211/1
f 139/190/10 141/189/10 150/212/10 149/213/10
f 157/214/2 155/215/2 153/189/2 154/188/2
f 153/216/3 151/217/3 152/218/3 154/219/3
f 157/220/1 158/221/1 156/222/1 155/223/1
f 188/224/2 189/225/2 175/226/2 173/227/2
f 189/228/3 190/229/3 176/230/3 175/231/3
f 159/232/7 162/233/7 147/234/7 145/235/7
f 153/189/10 155/215/10 164/236/10 163/212/10
f 171/191/2 169/190/2 167/237/2 168/238/2
f 167/239/3 165/240/3 166/241/3 168/242/3
f 171/243/1 172/244/1 170/245/1 169/246/1
f 190/247/7 187/232/7 174/235/7 176/225/7
f 268/248/2 269/249/2 202/250/2 204/251/2
f 187/234/1 188/252/1 173/253/1 174/254/1
f 167/237/10 169/190/10 178/213/10 177/255/10
f 185/256/2 183/257/2 181/258/2 182/259/2
f 181/260/3 179/261/3 180/262/3 182/263/3
f 185/264/1 186/265/1 184/266/1 183/267/1
f 270/251/7 267/268/7 203/269/7 201/248/7
f 267/268/1 268/270/1 204/271/1 203/269/1
f 269/272/3 270/271/3 201/270/3 202/273/3
f 181/258/10 183/257/10 192/179/10 191/274/10
f 199/238/2 197/237/2 195/166/2 196/165/2
f 195/275/3 193/276/3 194/277/3 196/278/3
f 199/279/1 200/280/1 198/281/1 197/282/1
f 278/235/7 275/234/7 273/254/7 271/283/7
f 275/206/1 276/284/1 274/285/1 273/286/1
f 276/227/2 277/287/2 272/288/2 274/224/2
f 195/166/10 197/237/10 206/255/10 205/177/10
f 52/94/2 50/93/2 58/93/2 60/94/2
f 215/289/3 222/290/3 210/291/3 8/292/3
f 222/293/3 224/294/3 209/295/3 210/296/3
f 211/26/3 212/25/3 223/297/3 221/298/3
f 6/299/11 7/300/11 207/301/11 208/302/11
f 4/27/3 211/26/3 221/298/3 216/303/3
f 216/303/3 221/298/3 222/304/3 215/305/3
f 212/25/3 3/18/3 217/306/3 223/297/3
f 222/307/3 221/308/3 217/298/3 218/304/3
f 3/14/7 2/15/7 213/309/7 217/310/7
f 217/310/7 213/309/7 214/311/7 218/312/7
f 1/11/2 4/13/2 216/313/2 219/314/2
f 219/314/2 216/313/2 215/6/2 220/5/2
f 2/18/1 1/17/1 219/315/1 213/306/1
f 213/306/1 219/315/1 220/2/1 214/1/1
f 209/316/7 224/317/7 226/318/7 225/319/7
f 231/207/1 232/320/1 227/321/1 228/322/1
f 226/9/8 224/9/8 218/9/8 214/9/8
f 232/205/2 233/323/2 229/208/2 227/206/2
f 233/324/3 234/230/3 230/229/3 229/325/3
f 234/233/7 231/204/7 228/207/7 230/234/7
f 239/326/1 240/327/1 235/328/1 236/329/1
f 240/330/2 241/331/2 237/224/2 235/288/2
f 241/332/3 242/200/3 238/203/3 237/333/3
f 242/334/7 239/288/7 236/287/7 238/335/7
f 247/225/1 248/336/1 243/337/1 244/226/1
f 248/323/2 249/338/2 245/326/2 243/208/2
f 249/339/3 250/332/3 246/333/3 245/340/3
f 250/338/7 247/324/7 244/325/7 246/326/7
f 255/327/1 256/202/1 251/201/1 252/328/1
f 256/341/2 257/330/2 253/288/2 251/334/2
f 257/342/3 258/228/3 254/231/3 253/343/3
f 258/331/7 255/247/7 252/225/7 254/224/7
f 263/268/1 264/270/1 259/271/1 260/269/1
f 264/248/2 265/249/2 261/250/2 259/251/2
f 265/272/3 266/271/3 262/270/3 261/273/3
f 266/251/7 263/268/7 260/269/7 262/248/7
f 277/344/3 278/342/3 271/343/3 272/345/3
f 282/9/3 281/1/3 279/4/3 280/10/3
f 285/1/3 284/4/3 283/3/3 286/2/3
