# Blender v2.74 (sub 0) OBJ File: 'Trost house 4.blend'
# www.blender.org
mtllib Trost house 4.mtl
o Cube_Cube.002
v -1.978182 2.000000 -2.134546
v -1.978183 2.000000 -0.134546
v 2.021817 2.000000 -0.134545
v 2.021818 2.000000 -2.134545
v -1.978182 0.000000 -2.134546
v -1.978183 0.000000 -0.134546
v 2.021817 0.000000 -0.134545
v 2.021818 0.000000 -2.134545
v -1.978182 2.800000 -1.414546
v -1.978183 2.800000 -0.854546
v 2.021817 2.800000 -0.854545
v 2.021817 2.800000 -1.414545
v -1.186182 2.000000 -0.570546
v -1.186182 2.000000 -0.138546
v -1.360182 2.000000 -0.138546
v -1.360182 2.000000 -0.570546
v -1.186182 2.240000 -0.570546
v -1.186182 2.240000 -0.138546
v -1.360182 2.240000 -0.138546
v -1.360182 2.240000 -0.570546
v -0.366183 2.000000 -0.570546
v -0.366183 2.000000 -0.138546
v -0.540183 2.000000 -0.138546
v -0.540183 2.000000 -0.570546
v -0.366183 2.240000 -0.570546
v -0.366183 2.240000 -0.138546
v -0.540183 2.240000 -0.138546
v -0.540183 2.240000 -0.570546
v 0.553818 2.000000 -0.570545
v 0.553817 2.000000 -0.138545
v 0.379817 2.000000 -0.138546
v 0.379817 2.000000 -0.570545
v 0.553818 2.240000 -0.570545
v 0.553817 2.240000 -0.138545
v 0.379817 2.240000 -0.138546
v 0.379817 2.240000 -0.570545
v 1.373817 2.000000 -0.570545
v 1.373817 2.000000 -0.138545
v 1.199817 2.000000 -0.138545
v 1.199817 2.000000 -0.570545
v 1.373817 2.240000 -0.570545
v 1.373817 2.240000 -0.138545
v 1.199817 2.240000 -0.138545
v 1.199817 2.240000 -0.570545
v -1.944001 1.400000 -0.120450
v 2.004001 1.400000 -0.230450
v -1.944001 1.400000 -0.230450
v 2.004001 1.400000 -0.120450
v -1.944001 1.500000 -0.120450
v -1.944001 0.600000 -0.230450
v -1.944001 1.500000 -0.230450
v 2.004001 0.600000 -0.230450
v -1.944001 0.600000 -0.120450
v 2.004001 1.500000 -0.120450
v 2.004001 1.500000 -0.230450
v 2.004001 0.600000 -0.120450
v -1.944001 0.700000 -0.120450
v -1.944001 0.700000 -0.230450
v 2.004001 0.700000 -0.120450
v 2.004001 0.700000 -0.230450
v 1.885000 1.902272 -0.200450
v 1.885000 0.730366 -0.200450
v 1.885000 1.902272 -0.100450
v 1.885000 0.730366 -0.100450
v 2.015000 1.902272 -0.100450
v 2.015000 1.902272 -0.200450
v 2.015000 0.730367 -0.100450
v 2.015000 0.730367 -0.200450
v 1.885000 0.000001 -0.155450
v 1.885000 0.000001 -0.005450
v 2.015000 0.000001 -0.005450
v 2.015000 0.000001 -0.155450
v 1.885000 2.002272 -0.240450
v 1.885000 2.002272 -0.140450
v 2.015000 2.002272 -0.140450
v 2.015000 2.002272 -0.240450
v 0.885000 1.902272 -0.200450
v 0.885000 0.730366 -0.200450
v 0.885000 1.902272 -0.100450
v 0.885000 0.730366 -0.100450
v 1.015000 1.902272 -0.100450
v 1.015000 1.902272 -0.200450
v 1.015000 0.730367 -0.100450
v 1.015000 0.730367 -0.200450
v 0.885000 0.000001 -0.155450
v 0.885000 0.000001 -0.005450
v 1.015000 0.000001 -0.005450
v 1.015000 0.000001 -0.155450
v 0.885000 2.002272 -0.240450
v 0.885000 2.002272 -0.140450
v 1.015000 2.002272 -0.140450
v 1.015000 2.002272 -0.240450
v -0.035000 1.902272 -0.200450
v -0.035000 0.730366 -0.200450
v -0.035000 1.902272 -0.100450
v -0.035000 0.730366 -0.100450
v 0.095000 1.902272 -0.100450
v 0.095000 1.902272 -0.200450
v 0.095000 0.730367 -0.100450
v 0.095000 0.730367 -0.200450
v -0.035000 0.000001 -0.155450
v -0.035000 0.000001 -0.005450
v 0.095000 0.000001 -0.005450
v 0.095000 0.000001 -0.155450
v -0.035000 2.002272 -0.240450
v -0.035000 2.002272 -0.140450
v 0.095000 2.002272 -0.140450
v 0.095000 2.002272 -0.240450
v -1.035000 1.902272 -0.200450
v -1.035000 0.730366 -0.200450
v -1.035000 1.902272 -0.100450
v -1.035000 0.730366 -0.100450
v -0.905000 1.902272 -0.100450
v -0.905000 1.902272 -0.200450
v -0.905000 0.730367 -0.100450
v -0.905000 0.730367 -0.200450
v -1.035000 0.000001 -0.155450
v -1.035000 0.000001 -0.005450
v -0.905000 0.000001 -0.005450
v -0.905000 0.000001 -0.155450
v -1.035000 2.002272 -0.240450
v -1.035000 2.002272 -0.140450
v -0.905000 2.002272 -0.140450
v -0.905000 2.002272 -0.240450
v -1.975000 1.902272 -0.200450
v -1.975000 0.730366 -0.200450
v -1.975000 1.902272 -0.100450
v -1.975000 0.730366 -0.100450
v -1.845000 1.902272 -0.100450
v -1.845000 1.902272 -0.200450
v -1.845000 0.730367 -0.100450
v -1.845000 0.730367 -0.200450
v -1.975000 0.000001 -0.155450
v -1.975000 0.000001 -0.005450
v -1.845000 0.000001 -0.005450
v -1.845000 0.000001 -0.155450
v -1.975000 2.002272 -0.240450
v -1.975000 2.002272 -0.140450
v -1.845000 2.002272 -0.140450
v -1.845000 2.002272 -0.240450
v 1.970667 1.400000 -2.147952
v -1.977334 1.400000 -2.037952
v 1.970667 1.400000 -2.037952
v -1.977334 1.400000 -2.147952
v 1.970667 1.500000 -2.147952
v 1.970667 0.600000 -2.037952
v 1.970667 1.500000 -2.037952
v -1.977334 0.600000 -2.037952
v 1.970667 0.600000 -2.147952
v -1.977334 1.500000 -2.147952
v -1.977334 1.500000 -2.037952
v -1.977334 0.600000 -2.147952
v 1.970667 0.700000 -2.147952
v 1.970667 0.700000 -2.037952
v -1.977334 0.700000 -2.147952
v -1.977334 0.700000 -2.037952
v -1.844958 1.902272 -2.067952
v -1.844959 0.730366 -2.067952
v -1.844958 1.902272 -2.167953
v -1.844959 0.730366 -2.167952
v -1.974959 1.902272 -2.167953
v -1.974959 1.902272 -2.067952
v -1.974959 0.730367 -2.167952
v -1.974959 0.730367 -2.067952
v -1.844959 0.000001 -2.112952
v -1.844959 0.000001 -2.262952
v -1.974959 0.000001 -2.262952
v -1.974959 0.000001 -2.112952
v -1.844958 2.002272 -2.027952
v -1.844958 2.002272 -2.127953
v -1.974959 2.002272 -2.127952
v -1.974959 2.002272 -2.027952
v -0.844958 1.902272 -2.067952
v -0.844959 0.730366 -2.067952
v -0.844958 1.902272 -2.167952
v -0.844959 0.730366 -2.167952
v -0.974959 1.902272 -2.167952
v -0.974959 1.902272 -2.067952
v -0.974959 0.730367 -2.167952
v -0.974959 0.730367 -2.067952
v -0.844959 0.000001 -2.112952
v -0.844959 0.000001 -2.262952
v -0.974959 0.000001 -2.262952
v -0.974959 0.000001 -2.112952
v -0.844958 2.002272 -2.027952
v -0.844958 2.002272 -2.127952
v -0.974959 2.002272 -2.127952
v -0.974959 2.002272 -2.027952
v 0.075042 1.902272 -2.067952
v 0.075041 0.730366 -2.067952
v 0.075042 1.902272 -2.167952
v 0.075041 0.730366 -2.167952
v -0.054959 1.902272 -2.167952
v -0.054959 1.902272 -2.067952
v -0.054959 0.730367 -2.167952
v -0.054959 0.730367 -2.067952
v 0.075041 0.000001 -2.112952
v 0.075041 0.000001 -2.262952
v -0.054959 0.000001 -2.262952
v -0.054959 0.000001 -2.112952
v 0.061667 2.002272 -2.027952
v 0.075042 2.002272 -2.127952
v -0.054959 2.002272 -2.127952
v -0.054959 2.002272 -2.027952
v 1.075042 1.902272 -2.067952
v 1.075041 0.730366 -2.067952
v 1.075042 1.902272 -2.167952
v 1.075041 0.730366 -2.167952
v 0.945041 1.902272 -2.167952
v 0.945041 1.902272 -2.067952
v 0.945041 0.730367 -2.167952
v 0.945041 0.730367 -2.067952
v 1.075041 0.000001 -2.112952
v 1.075041 0.000001 -2.262952
v 0.945041 0.000001 -2.262952
v 0.945041 0.000001 -2.112952
v 1.075042 2.002272 -2.027952
v 1.075042 2.002272 -2.127952
v 0.945041 2.002272 -2.127952
v 0.945041 2.002272 -2.027952
v 2.015042 1.902272 -2.067952
v 2.015041 0.730366 -2.067951
v 2.015042 1.902272 -2.167952
v 2.015041 0.730366 -2.167951
v 1.885041 1.902272 -2.167952
v 1.885041 1.902272 -2.067952
v 1.885041 0.730367 -2.167951
v 1.885041 0.730367 -2.067951
v 2.015041 0.000001 -2.112952
v 2.015041 0.000001 -2.262951
v 1.885041 0.000001 -2.262951
v 1.885041 0.000001 -2.112952
v 2.001667 2.002272 -2.027952
v 2.015042 2.002272 -2.127952
v 1.885041 2.002272 -2.127952
v 1.885041 2.002272 -2.027952
v 1.199818 1.999805 -1.702346
v 1.199818 1.999805 -2.134346
v 1.373818 1.999805 -2.134346
v 1.373818 1.999805 -1.702346
v 1.199818 2.239805 -1.702346
v 1.199818 2.239805 -2.134346
v 1.373818 2.239805 -2.134346
v 1.373818 2.239805 -1.702346
v 0.379818 1.999805 -1.702346
v 0.379818 1.999805 -2.134346
v 0.553818 1.999805 -2.134346
v 0.553818 1.999805 -1.702346
v 0.379818 2.239805 -1.702346
v 0.379818 2.239805 -2.134346
v 0.553818 2.239805 -2.134346
v 0.553818 2.239805 -1.702346
v -0.540182 1.999805 -1.702346
v -0.540182 1.999805 -2.134346
v -0.366182 1.999805 -2.134346
v -0.366182 1.999805 -1.702346
v -0.540182 2.239805 -1.702346
v -0.540182 2.239805 -2.134346
v -0.366182 2.239805 -2.134346
v -0.366182 2.239805 -1.702346
v -1.360182 1.999805 -1.702346
v -1.360182 1.999805 -2.134346
v -1.186182 1.999805 -2.134346
v -1.186182 1.999805 -1.702346
v -1.360182 2.239805 -1.702346
v -1.360182 2.239805 -2.134346
v -1.186182 2.239805 -2.134346
v -1.186182 2.239805 -1.702346
vt 0.249818 0.852466
vt 0.000000 0.852466
vt 0.000000 0.568310
vt 0.249818 0.568310
vt 0.109611 0.568310
vt 0.109611 0.000000
vt 0.357769 0.000000
vt 0.357769 0.568310
vt 0.467380 0.568310
vt 0.467380 0.000000
vt 0.715539 0.000000
vt 0.715539 0.568310
vt 0.499634 0.852467
vt 0.499634 0.568312
vt 0.000000 0.000000
vt 0.089934 0.966128
vt 0.785488 0.568310
vt 0.785488 0.000000
vt 0.159883 0.966128
vt 0.339752 0.966128
vt 0.409700 0.966128
vt 0.499634 0.915480
vt 0.499634 0.854103
vt 0.529612 0.854103
vt 0.529612 0.915480
vt 0.000000 0.966128
vt 0.021734 0.966128
vt 0.021734 1.000000
vt 0.000000 1.000000
vt 0.599143 0.915477
vt 0.599143 0.854100
vt 0.629121 0.854100
vt 0.629121 0.915477
vt 0.823889 0.976855
vt 0.823889 0.915477
vt 0.845623 0.915477
vt 0.845623 0.976855
vt 0.599143 0.976855
vt 0.569165 0.976855
vt 0.569165 0.915478
vt 0.856865 0.854100
vt 0.878599 0.854100
vt 0.878599 0.887972
vt 0.856865 0.887972
vt 0.569165 0.854100
vt 0.802155 0.976855
vt 0.802155 0.915477
vt 0.826887 0.854100
vt 0.826887 0.915477
vt 0.796909 0.915477
vt 0.796909 0.854100
vt 0.043468 0.966128
vt 0.065202 0.966128
vt 0.065202 1.000000
vt 0.043468 1.000000
vt 0.659099 0.854100
vt 0.659099 0.915477
vt 0.732546 0.915477
vt 0.732546 0.976855
vt 0.710811 0.976855
vt 0.710811 0.915477
vt 0.539187 0.976855
vt 0.539187 0.915478
vt 0.867357 0.915477
vt 0.867357 0.949349
vt 0.845623 0.949349
vt 0.539187 0.854100
vt 0.736953 0.976855
vt 0.736953 0.915477
vt 0.758687 0.915477
vt 0.758687 0.976855
vt 0.897823 0.560923
vt 0.897823 0.000000
vt 0.910231 0.000000
vt 0.910231 0.560923
vt 0.922639 0.000000
vt 0.922639 0.560923
vt 0.835452 0.560923
vt 0.822961 0.560923
vt 0.822961 0.000000
vt 0.835452 0.000000
vt 0.847943 0.000000
vt 0.860433 0.000000
vt 0.860434 0.560923
vt 0.847943 0.560923
vt 0.810470 0.560923
vt 0.810470 0.000000
vt 0.756729 0.583493
vt 0.744254 0.582784
vt 0.739887 0.568310
vt 0.752362 0.569019
vt 0.967524 0.104632
vt 0.967524 0.270028
vt 0.951285 0.270028
vt 0.951285 0.104632
vt 0.578740 0.838918
vt 0.566265 0.839626
vt 0.558963 0.673332
vt 0.571439 0.672623
vt 0.749428 0.749787
vt 0.736953 0.749078
vt 0.560027 0.569373
vt 0.578740 0.568310
vt 0.951285 0.000000
vt 0.967524 0.000000
vt 0.756729 0.854099
vt 0.738016 0.853036
vt 0.574373 0.853391
vt 0.561898 0.854100
vt 0.967524 0.284796
vt 0.951285 0.284796
vt 0.776506 0.583493
vt 0.764031 0.582784
vt 0.759663 0.568310
vt 0.772139 0.569019
vt 0.992594 0.672943
vt 0.992594 0.838339
vt 0.976356 0.838339
vt 0.976356 0.672943
vt 0.618293 0.838918
vt 0.605818 0.839626
vt 0.598517 0.673332
vt 0.610992 0.672623
vt 0.769205 0.749787
vt 0.756729 0.749078
vt 0.599580 0.569373
vt 0.618293 0.568310
vt 0.976356 0.568310
vt 0.992594 0.568310
vt 0.776506 0.854099
vt 0.757793 0.853036
vt 0.613926 0.853391
vt 0.601451 0.854100
vt 0.992594 0.853106
vt 0.976356 0.853106
vt 0.835835 0.583493
vt 0.823360 0.582784
vt 0.818993 0.568310
vt 0.831468 0.569019
vt 1.000000 0.104632
vt 1.000000 0.270028
vt 0.983762 0.270028
vt 0.983762 0.104632
vt 0.558963 0.838918
vt 0.546488 0.839626
vt 0.539187 0.673332
vt 0.551662 0.672623
vt 0.828534 0.749787
vt 0.816059 0.749078
vt 0.540250 0.569373
vt 0.558963 0.568310
vt 0.983762 0.000000
vt 1.000000 0.000000
vt 0.835835 0.854099
vt 0.817122 0.853036
vt 0.554596 0.853391
vt 0.542121 0.854100
vt 1.000000 0.284796
vt 0.983762 0.284796
vt 0.816059 0.583493
vt 0.803583 0.582784
vt 0.799216 0.568310
vt 0.811692 0.569019
vt 0.598517 0.838918
vt 0.586041 0.839626
vt 0.578740 0.673332
vt 0.591215 0.672623
vt 0.808757 0.749787
vt 0.796282 0.749078
vt 0.579804 0.569373
vt 0.598517 0.568310
vt 0.816059 0.854099
vt 0.797346 0.853036
vt 0.594150 0.853391
vt 0.581674 0.854100
vt 0.855612 0.583493
vt 0.843136 0.582784
vt 0.838769 0.568310
vt 0.851245 0.569019
vt 0.960118 0.748474
vt 0.960118 0.583078
vt 0.976356 0.583078
vt 0.976356 0.748474
vt 0.638070 0.838918
vt 0.625595 0.839626
vt 0.618293 0.673332
vt 0.630769 0.672623
vt 0.848310 0.749787
vt 0.835835 0.749078
vt 0.619357 0.569373
vt 0.638070 0.568310
vt 0.960118 0.853106
vt 0.855612 0.854099
vt 0.836899 0.853036
vt 0.633703 0.853391
vt 0.621228 0.854100
vt 0.960118 0.568310
vt 0.935047 0.000000
vt 0.935047 0.560923
vt 0.885415 0.560923
vt 0.885415 0.000000
vt 0.872924 0.000000
vt 0.872924 0.560923
vt 0.797979 0.560923
vt 0.797979 0.000000
vt 0.785488 0.560923
vt 0.736953 0.583493
vt 0.724477 0.582784
vt 0.720110 0.568310
vt 0.732586 0.569019
vt 0.911403 0.748474
vt 0.911403 0.583078
vt 0.927641 0.583078
vt 0.927641 0.748474
vt 0.796282 0.838917
vt 0.783807 0.839625
vt 0.776506 0.673331
vt 0.788981 0.672623
vt 0.729652 0.749787
vt 0.717176 0.749078
vt 0.777569 0.569373
vt 0.796282 0.568310
vt 0.927641 0.853106
vt 0.911403 0.853106
vt 0.736953 0.854100
vt 0.718240 0.853037
vt 0.791915 0.853390
vt 0.779440 0.854099
vt 0.911403 0.568310
vt 0.927641 0.568310
vt 0.697400 0.583493
vt 0.684924 0.582784
vt 0.680557 0.568310
vt 0.693033 0.569019
vt 0.895165 0.748474
vt 0.895165 0.583078
vt 0.895165 0.838917
vt 0.882689 0.839625
vt 0.875388 0.673331
vt 0.887863 0.672623
vt 0.690098 0.749787
vt 0.677623 0.749078
vt 0.876452 0.569373
vt 0.895165 0.568310
vt 0.895165 0.853106
vt 0.697400 0.854100
vt 0.678687 0.853037
vt 0.890797 0.853390
vt 0.878322 0.854099
vt 0.717176 0.583493
vt 0.704701 0.582784
vt 0.700334 0.568310
vt 0.712809 0.569019
vt 0.943879 0.583078
vt 0.943879 0.748474
vt 0.539187 0.838917
vt 0.526712 0.839625
vt 0.519410 0.673331
vt 0.531886 0.672623
vt 0.709875 0.749787
vt 0.697400 0.749078
vt 0.520474 0.569373
vt 0.539187 0.568310
vt 0.943879 0.853106
vt 0.717176 0.854100
vt 0.698463 0.853037
vt 0.534820 0.853390
vt 0.522339 0.854103
vt 0.943879 0.568310
vt 0.657847 0.583493
vt 0.645371 0.582784
vt 0.641004 0.568310
vt 0.653479 0.569019
vt 0.935047 0.180163
vt 0.935047 0.014767
vt 0.951285 0.014767
vt 0.951285 0.180163
vt 0.875388 0.838917
vt 0.862913 0.839625
vt 0.855612 0.673331
vt 0.868087 0.672623
vt 0.650545 0.749787
vt 0.638070 0.749078
vt 0.856675 0.569373
vt 0.875388 0.568310
vt 0.935047 0.284796
vt 0.657847 0.854100
vt 0.639134 0.853037
vt 0.871021 0.853390
vt 0.858546 0.854099
vt 0.677623 0.583493
vt 0.665148 0.582784
vt 0.660781 0.568310
vt 0.673256 0.569019
vt 0.519410 0.838917
vt 0.506935 0.839625
vt 0.499634 0.673331
vt 0.512109 0.672623
vt 0.670322 0.749787
vt 0.657847 0.749078
vt 0.500697 0.569373
vt 0.519410 0.568310
vt 0.677623 0.854100
vt 0.658910 0.853037
vt 0.515043 0.853390
vt 0.502563 0.854103
vt 0.689077 0.854100
vt 0.689077 0.915477
vt 0.086936 0.966128
vt 0.108671 0.966128
vt 0.108671 1.000000
vt 0.086936 1.000000
vt 0.856865 0.915477
vt 0.780421 0.976855
vt 0.780421 0.915477
vt 0.766931 0.854100
vt 0.766931 0.915477
vt 0.629121 0.976855
vt 0.659099 0.976855
vt 0.689077 0.976855
vt 0.499634 0.976858
vt 0.521368 0.915480
vt 0.521368 0.976858
vt 0.697400 0.915477
vt 0.727378 0.854100
vt 0.727378 0.915477
vt 0.867357 0.983222
vt 0.845623 0.983222
vn -1.000000 0.000000 -0.000000
vn 0.000000 0.000000 -1.000000
vn -0.000000 0.000000 1.000000
vn 1.000000 0.000000 0.000000
vn 0.000000 0.669000 -0.743300
vn -0.000000 0.669000 0.743300
vn 0.000000 1.000000 0.000000
vn 0.000000 -1.000000 0.000000
vn 0.000000 0.129000 0.991600
vn 0.000000 0.371400 0.928500
vn 0.000000 0.129000 -0.991600
vn 0.000000 0.371400 -0.928500
vn 0.997000 0.040000 0.066700
usemtl Material
s off
f 2/1/1 1/2/1 5/3/1 6/4/1
f 1/5/2 4/6/2 8/7/2 5/8/2
f 3/9/3 2/10/3 6/11/3 7/12/3
f 4/13/4 3/1/4 7/4/4 8/14/4
f 1/5/5 9/3/5 12/15/5 4/6/5
f 3/9/6 11/8/6 10/7/6 2/10/6
f 9/16/1 1/2/1 2/1/1
f 9/17/7 10/12/7 11/11/7 12/18/7
f 9/16/1 2/1/1 10/19/1
f 11/20/4 3/1/4 4/13/4
f 11/20/4 4/13/4 12/21/4
f 17/22/4 18/23/4 14/24/4 13/25/4
f 18/26/3 19/27/3 15/28/3 14/29/3
f 19/30/1 20/31/1 16/32/1 15/33/1
f 20/34/7 19/35/7 18/36/7 17/37/7
f 25/30/4 26/38/4 22/39/4 21/40/4
f 26/41/3 27/42/3 23/43/3 22/44/3
f 27/40/1 28/45/1 24/31/1 23/30/1
f 28/46/7 27/47/7 26/35/7 25/34/7
f 33/48/4 34/49/4 30/50/4 29/51/4
f 34/52/3 35/53/3 31/54/3 30/55/3
f 35/33/1 36/32/1 32/56/1 31/57/1
f 36/58/7 35/59/7 34/60/7 33/61/7
f 41/62/4 42/63/4 38/40/4 37/39/4
f 42/36/3 43/64/3 39/65/3 38/66/3
f 43/63/1 44/67/1 40/45/1 39/40/1
f 44/68/7 43/69/7 42/70/7 41/71/7
f 54/72/3 49/73/3 45/74/3 48/75/3
f 59/75/3 57/74/3 53/76/3 56/77/3
f 45/78/8 47/79/8 46/80/8 48/81/8
f 54/82/7 55/83/7 51/84/7 49/85/7
f 53/79/8 50/86/8 52/87/8 56/80/8
f 59/81/7 60/82/7 58/85/7 57/78/7
f 65/88/4 66/89/4 76/90/4 75/91/4
f 67/92/3 65/93/3 63/94/3 64/95/3
f 63/96/1 61/97/1 62/98/1 64/99/1
f 67/100/4 68/101/4 66/89/4 65/88/4
f 64/99/1 62/98/1 69/102/1 70/103/1
f 67/92/9 64/95/9 70/104/9 71/105/9
f 68/101/4 67/100/4 71/106/4 72/107/4
f 61/97/1 63/96/1 74/108/1 73/109/1
f 63/94/10 65/93/10 75/110/10 74/111/10
f 81/112/4 82/113/4 92/114/4 91/115/4
f 83/116/3 81/117/3 79/118/3 80/119/3
f 79/120/1 77/121/1 78/122/1 80/123/1
f 83/124/4 84/125/4 82/113/4 81/112/4
f 80/123/1 78/122/1 85/126/1 86/127/1
f 83/116/9 80/119/9 86/128/9 87/129/9
f 84/125/4 83/124/4 87/130/4 88/131/4
f 77/121/1 79/120/1 90/132/1 89/133/1
f 79/118/10 81/117/10 91/134/10 90/135/10
f 97/136/4 98/137/4 108/138/4 107/139/4
f 99/140/3 97/141/3 95/142/3 96/143/3
f 95/144/1 93/145/1 94/146/1 96/147/1
f 99/148/4 100/149/4 98/137/4 97/136/4
f 96/147/1 94/146/1 101/150/1 102/151/1
f 99/140/9 96/143/9 102/152/9 103/153/9
f 100/149/4 99/148/4 103/154/4 104/155/4
f 93/145/1 95/144/1 106/156/1 105/157/1
f 95/142/10 97/141/10 107/158/10 106/159/10
f 113/160/4 114/161/4 124/162/4 123/163/4
f 115/143/3 113/142/3 111/93/3 112/92/3
f 111/164/1 109/165/1 110/166/1 112/167/1
f 115/168/4 116/169/4 114/161/4 113/160/4
f 112/167/1 110/166/1 117/170/1 118/171/1
f 115/143/9 112/92/9 118/105/9 119/152/9
f 116/169/4 115/168/4 119/172/4 120/173/4
f 109/165/1 111/164/1 122/174/1 121/175/1
f 111/93/10 113/142/10 123/159/10 122/110/10
f 129/176/4 130/177/4 140/178/4 139/179/4
f 131/180/3 129/181/3 127/182/3 128/183/3
f 127/184/1 125/185/1 126/186/1 128/187/1
f 131/188/4 132/189/4 130/177/4 129/176/4
f 128/187/1 126/186/1 133/190/1 134/191/1
f 131/180/9 128/183/9 134/135/9 135/192/9
f 132/189/4 131/188/4 135/193/4 136/194/4
f 125/185/1 127/184/1 138/195/1 137/196/1
f 127/182/10 129/181/10 139/197/10 138/128/10
f 150/198/2 145/199/2 141/77/2 144/76/2
f 155/200/2 153/201/2 149/73/2 152/72/2
f 141/202/8 143/201/8 142/200/8 144/203/8
f 150/86/7 151/204/7 147/205/7 145/87/7
f 149/83/8 146/202/8 148/203/8 152/84/8
f 155/204/7 156/206/7 154/18/7 153/205/7
f 161/207/1 162/208/1 172/209/1 171/210/1
f 163/211/2 161/212/2 159/213/2 160/214/2
f 159/215/4 157/216/4 158/217/4 160/218/4
f 163/219/1 164/220/1 162/208/1 161/207/1
f 160/218/4 158/217/4 165/221/4 166/222/4
f 163/211/11 160/214/11 166/223/11 167/224/11
f 164/220/1 163/219/1 167/225/1 168/226/1
f 157/216/4 159/215/4 170/227/4 169/228/4
f 159/213/12 161/212/12 171/229/12 170/230/12
f 177/231/1 178/232/1 188/233/1 187/234/1
f 179/235/2 177/236/2 175/212/2 176/211/2
f 175/237/4 173/238/4 174/239/4 176/240/4
f 179/241/1 180/242/1 178/232/1 177/231/1
f 176/240/4 174/239/4 181/243/4 182/244/4
f 179/235/11 176/211/11 182/224/11 183/245/11
f 180/242/1 179/241/1 183/246/1 184/247/1
f 173/238/4 175/237/4 186/248/4 185/249/4
f 175/212/12 177/236/12 187/244/12 186/229/12
f 193/250/1 194/251/1 204/252/1 203/253/1
f 195/214/2 193/213/2 191/254/2 192/255/2
f 191/256/4 189/257/4 190/258/4 192/259/4
f 195/260/1 196/261/1 194/251/1 193/250/1
f 192/259/4 190/258/4 197/262/4 198/263/4
f 195/214/11 192/255/11 198/264/11 199/223/11
f 196/261/1 195/260/1 199/265/1 200/266/1
f 189/257/13 191/256/13 202/267/13 201/268/13
f 191/254/12 193/213/12 203/230/12 202/269/12
f 209/270/1 210/271/1 220/272/1 219/273/1
f 211/274/2 209/275/2 207/276/2 208/277/2
f 207/278/4 205/279/4 206/280/4 208/281/4
f 211/282/1 212/283/1 210/271/1 209/270/1
f 208/281/4 206/280/4 213/284/4 214/285/4
f 211/274/11 208/277/11 214/111/11 215/286/11
f 212/283/1 211/282/1 215/287/1 216/288/1
f 205/279/4 207/278/4 218/289/4 217/290/4
f 207/276/12 209/275/12 219/198/12 218/104/12
f 225/291/1 226/292/1 236/293/1 235/294/1
f 227/255/2 225/254/2 223/181/2 224/180/2
f 223/295/4 221/296/4 222/297/4 224/298/4
f 227/299/1 228/300/1 226/292/1 225/291/1
f 224/298/4 222/297/4 229/301/4 230/302/4
f 227/255/11 224/180/11 230/192/11 231/264/11
f 228/300/1 227/299/1 231/303/1 232/304/1
f 221/296/13 223/295/13 234/305/13 233/306/13
f 223/181/12 225/254/12 235/269/12 234/197/12
f 241/57/1 242/56/1 238/307/1 237/308/1
f 242/309/2 243/310/2 239/311/2 238/312/2
f 243/41/4 244/313/4 240/49/4 239/48/4
f 244/47/7 243/46/7 242/314/7 241/315/7
f 249/69/1 250/225/1 246/316/1 245/317/1
f 250/53/2 251/309/2 247/312/2 246/54/2
f 251/33/4 252/318/4 248/38/4 247/30/4
f 252/315/7 251/314/7 250/71/7 249/70/7
f 257/317/1 258/316/1 254/51/1 253/50/1
f 258/27/2 259/52/2 255/55/2 254/28/2
f 259/319/4 260/57/4 256/308/4 255/320/4
f 260/321/7 259/22/7 258/322/7 257/323/7
f 265/324/1 266/246/1 262/325/1 261/326/1
f 266/66/2 267/65/2 263/327/2 262/328/2
f 267/318/4 268/33/4 264/57/4 263/319/4
f 268/61/7 267/60/7 266/320/7 265/308/7
