# Blender v2.74 (sub 0) OBJ File: 'Trosttower1.blend'
# www.blender.org
mtllib Trosttower1.mtl
o Cube_Cube.001
v -0.393248 -0.000000 0.390517
v -0.393248 -0.000000 -0.377483
v 0.406752 -0.000000 -0.377483
v 0.406752 -0.000000 0.390517
v -0.393248 5.040000 0.390517
v -0.393248 5.040000 -0.377483
v 0.406752 5.040000 -0.377483
v 0.406752 5.040000 0.390517
v -0.126581 5.040000 -0.377483
v 0.140086 5.040000 -0.377483
v 0.140086 -0.000000 -0.377483
v -0.126581 -0.000000 -0.377483
v 0.140086 5.040000 0.390517
v -0.126581 5.040000 0.390517
v -0.126581 -0.000000 0.390517
v 0.140086 -0.000000 0.390517
v -0.393248 5.040000 0.134517
v -0.393248 5.040000 -0.121483
v -0.393248 -0.000000 -0.121483
v -0.393248 -0.000000 0.134517
v 0.406752 5.040000 -0.121483
v 0.406752 5.040000 0.134517
v 0.406752 -0.000000 0.134517
v 0.406752 -0.000000 -0.121483
v -0.277248 5.290000 0.279157
v 0.290752 5.290000 0.279157
v 0.290752 5.290000 -0.266123
v -0.277248 5.290000 -0.266123
v 0.101419 5.290000 -0.266123
v -0.087914 5.290000 -0.266123
v -0.087914 5.290000 0.279157
v 0.101419 5.290000 0.279157
v -0.277248 5.290000 -0.084363
v -0.277248 5.290000 0.097397
v 0.290752 5.290000 0.097397
v 0.290752 5.290000 -0.084363
v -0.087914 5.289649 -0.377312
v 0.101419 5.289649 -0.377312
v 0.406513 5.289675 0.097397
v 0.406513 5.289675 -0.084363
v -0.087914 5.289619 0.393896
v 0.101419 5.289619 0.393896
v 0.406752 2.898000 0.390517
v 0.006752 5.040000 -0.377483
v -0.392541 5.289675 -0.084363
v -0.392541 5.289675 0.097397
v 0.006752 5.040000 0.390517
v 0.406752 2.898000 -0.377483
v 0.006752 5.320001 0.226094
v 0.006752 5.320001 -0.213061
v 0.006752 5.319619 0.393896
v 0.006752 5.319649 -0.377312
v -0.393248 5.040000 0.006517
v -0.393248 2.898000 -0.377483
v 0.406752 5.040000 0.006517
v -0.393248 2.897625 0.390517
v 0.235478 5.320001 0.006517
v -0.221974 5.320001 0.006517
v 0.406513 5.319675 0.006517
v -0.392541 5.319675 0.006517
v -0.393248 0.456000 0.390517
v -0.393248 0.456000 -0.377483
v 0.406752 0.456000 -0.377483
v 0.406752 0.456000 0.390517
v 0.140086 0.456000 0.390517
v -0.126581 0.456000 0.390517
v -0.126581 0.456000 -0.377483
v 0.140086 0.456000 -0.377483
v 0.406752 0.456000 -0.121483
v 0.406752 0.456000 0.134517
v -0.393248 0.456000 0.134517
v -0.393248 0.456000 -0.121483
v 0.006752 0.556000 -0.377483
v 0.006752 0.556000 0.390517
v -0.393248 0.556000 0.006517
v 0.406752 0.556000 0.006517
v -0.393248 3.612000 0.390517
v -0.393248 4.026000 0.390517
v -0.393248 4.026000 -0.121483
v -0.126581 4.026000 0.390517
v 0.406752 4.026000 -0.377483
v 0.406752 3.612000 -0.377483
v 0.140086 4.026000 -0.377483
v 0.406752 4.026000 0.134517
v -0.393248 4.026000 0.134517
v -0.126581 4.026000 -0.377483
v 0.140086 4.026000 0.390517
v 0.406752 4.026000 -0.121483
v -0.393248 4.026000 -0.377483
v -0.393248 3.612000 -0.377483
v -0.393248 2.790900 0.390517
v -0.393248 2.790900 -0.377483
v 0.406752 2.790900 -0.377483
v 0.406752 2.790900 0.390517
v 0.140086 2.790900 0.390517
v -0.126581 2.790900 0.390517
v -0.126581 2.790900 -0.377483
v 0.140086 2.790900 -0.377483
v 0.406752 2.790900 -0.121483
v 0.406752 2.790900 0.134517
v -0.393248 2.790900 0.134517
v -0.393248 2.790900 -0.121483
v 0.006752 2.790900 -0.377483
v 0.006752 2.790900 0.390517
v -0.393248 2.790900 0.006517
v 0.406752 2.790900 0.006517
v 0.438752 2.790900 -0.417483
v 0.438752 2.898000 -0.417483
v 0.439213 2.898000 0.422517
v 0.439213 2.790900 0.422517
v -0.433248 2.897625 0.422933
v -0.433248 2.790900 0.422933
v -0.433237 2.897637 -0.417483
v -0.433248 2.790900 -0.417483
v 0.438752 3.590900 -0.417483
v 0.438752 3.698000 -0.417483
v 0.439213 3.698000 0.422517
v 0.439213 3.590900 0.422517
v -0.433248 3.697625 0.422933
v -0.433248 3.590900 0.422933
v -0.433237 3.697637 -0.417483
v -0.433248 3.590900 -0.417483
v 0.438752 3.790900 -0.417483
v 0.438752 3.898000 -0.417483
v 0.439213 3.898000 0.422517
v 0.439213 3.790900 0.422517
v -0.433248 3.897625 0.422933
v -0.433248 3.790900 0.422933
v -0.433237 3.897637 -0.417483
v -0.433248 3.790900 -0.417483
v 0.438752 4.890900 -0.417483
v 0.482340 4.998018 -0.459494
v 0.482847 4.998018 0.464506
v 0.439213 4.890900 0.422517
v -0.476860 4.997606 0.464964
v -0.433248 4.890900 0.422933
v -0.476848 4.997619 -0.459494
v -0.433248 4.890900 -0.417483
v 0.438752 2.590900 -0.417483
v 0.438752 2.698000 -0.417483
v 0.439213 2.698000 0.422517
v 0.439213 2.590900 0.422517
v -0.433248 2.697625 0.422933
v -0.433248 2.590900 0.422933
v -0.433237 2.697637 -0.417483
v -0.433248 2.590900 -0.417483
v 0.438752 0.890900 -0.417483
v 0.438752 0.998000 -0.417483
v 0.439213 0.998000 0.422517
v 0.439213 0.890900 0.422517
v -0.433248 0.997625 0.422933
v -0.433248 0.890900 0.422933
v -0.433237 0.997637 -0.417483
v -0.433248 0.890900 -0.417483
v 0.406752 4.583000 0.390517
v -0.393248 4.583000 0.390517
v -0.393248 4.583000 -0.121483
v -0.126581 4.583000 0.390517
v 0.406752 4.583000 -0.377483
v 0.140086 4.583000 -0.377483
v 0.406752 4.583000 0.134517
v -0.393248 4.583000 0.134517
v -0.126581 4.583000 -0.377483
v 0.140086 4.583000 0.390517
v 0.406752 4.583000 -0.121483
v -0.393248 4.583000 -0.377483
v 0.306752 4.026000 0.134517
v 0.306752 4.026000 -0.121483
v 0.306752 4.583000 0.134517
v 0.306752 4.583000 -0.121483
v -0.126581 4.026000 0.290517
v 0.140086 4.026000 0.290517
v -0.126581 4.583000 0.290517
v 0.140086 4.583000 0.290517
v 0.140086 4.026000 -0.277483
v -0.126581 4.026000 -0.277483
v 0.140086 4.583000 -0.277483
v -0.126581 4.583000 -0.277483
v -0.293248 4.026000 -0.121483
v -0.293248 4.026000 0.134517
v -0.293248 4.583000 -0.121483
v -0.293248 4.583000 0.134517
v 0.406752 4.026000 0.390517
v 0.406752 3.612000 0.390517
v -0.387311 0.003384 0.384817
v -0.387311 0.003384 -0.371784
v 0.400815 0.003384 -0.371784
v 0.400815 0.003384 0.384817
v 0.138106 0.003384 -0.371784
v -0.124602 0.003384 -0.371784
v -0.124602 0.003384 0.384817
v 0.138106 0.003384 0.384817
v -0.387311 0.003384 -0.119584
v -0.387311 0.003384 0.132617
v 0.400815 0.003384 0.132617
v 0.400815 0.003384 -0.119584
v -0.387311 0.452616 0.384817
v -0.387311 0.452616 -0.371784
v 0.400815 0.452616 -0.371784
v 0.400815 0.452616 0.384817
v 0.138106 0.452616 0.384817
v -0.124602 0.452616 0.384817
v -0.124602 0.452616 -0.371784
v 0.138106 0.452616 -0.371784
v 0.400815 0.452616 -0.119584
v 0.400815 0.452616 0.132617
v -0.387311 0.452616 0.132617
v -0.387311 0.452616 -0.119584
v 0.399637 0.590900 -0.379784
v 0.400056 0.590900 0.384836
v -0.394112 0.590900 0.385215
v -0.394112 0.590900 -0.379784
v -0.038688 5.689861 -0.037106
v -0.038688 5.689861 0.050139
v 0.052192 5.689861 0.050139
v 0.052192 5.689861 -0.037106
vt 0.275488 0.536702
vt 0.330586 0.536702
vt 0.330586 0.584448
vt 0.275488 0.584448
vt 0.275488 0.244479
vt 0.330586 0.244479
vt 0.330586 0.292225
vt 0.275488 0.292225
vt 0.385684 0.047746
vt 0.330586 0.047746
vt 0.330586 0.000000
vt 0.385684 0.000000
vt 0.055098 0.047748
vt 0.000000 0.047749
vt 0.000000 0.000000
vt 0.055098 0.000000
vt 0.165293 0.292238
vt 0.165293 0.459809
vt 0.000000 0.459809
vt 0.000000 0.292238
vt 0.165293 0.047748
vt 0.110195 0.047748
vt 0.110195 0.000000
vt 0.165293 0.000000
vt 0.165293 0.244479
vt 0.220391 0.244479
vt 0.220391 0.292225
vt 0.073787 0.961867
vt 0.000043 0.961867
vt 0.000043 0.794296
vt 0.073787 0.794296
vt 0.495879 0.047746
vt 0.440782 0.047746
vt 0.440782 0.000000
vt 0.495879 0.000000
vt 0.165293 0.536702
vt 0.220391 0.536702
vt 0.220391 0.584448
vt 0.165293 0.584448
vt 0.595435 0.955025
vt 0.584015 0.974854
vt 0.560097 0.974854
vt 0.560097 0.955025
vt 0.875728 0.649495
vt 0.875728 0.553309
vt 0.921104 0.539359
vt 0.921104 0.607652
vt 0.606856 0.936051
vt 0.630677 0.936051
vt 0.630677 0.955025
vt 0.930115 0.541001
vt 0.930115 0.638111
vt 0.884291 0.652192
vt 0.884291 0.583244
vt 0.947622 0.858937
vt 0.936201 0.878766
vt 0.911506 0.878766
vt 0.911506 0.858937
vt 0.898618 0.649920
vt 0.898618 0.567376
vt 0.937485 0.555402
vt 0.937485 0.614009
vt 0.923771 0.576932
vt 0.923771 0.607993
vt 0.908546 0.591204
vt 0.900755 0.650617
vt 0.900755 0.567126
vt 0.940142 0.555019
vt 0.940142 0.614299
vt 0.935892 0.560949
vt 0.935892 0.648595
vt 0.894534 0.610470
vt 0.894534 0.548242
vt 0.897174 0.638897
vt 0.897174 0.546796
vt 0.940622 0.586860
vt 0.940622 0.652250
vt 0.932032 0.558160
vt 0.932032 0.653728
vt 0.886946 0.612161
vt 0.886946 0.544307
vt 0.939606 0.559833
vt 0.939606 0.653001
vt 0.895737 0.612475
vt 0.895737 0.546328
vt 0.936201 0.839108
vt 0.911506 0.839108
vt 0.423531 0.935945
vt 0.439878 0.935945
vt 0.439878 0.976498
vt 0.428272 0.972145
vt 0.548676 0.935196
vt 0.524746 0.955025
vt 0.524746 0.935196
vt 0.423200 0.934439
vt 0.439787 0.934953
vt 0.439567 0.976403
vt 0.427814 0.971591
vt 0.439888 0.935970
vt 0.456234 0.935970
vt 0.451494 0.972132
vt 0.948990 0.573236
vt 0.948990 0.586260
vt 0.873829 0.580279
vt 0.955743 0.612594
vt 0.955743 0.625613
vt 0.880602 0.618576
vt 0.859800 0.626676
vt 0.909513 0.572180
vt 0.910932 0.626676
vt 0.962047 0.626691
vt 0.910934 0.573550
vt 0.962047 0.572180
vt 0.456226 0.935945
vt 0.548676 0.974854
vt 0.524746 0.974854
vt 0.923771 0.545869
vt 0.908546 0.562660
vt 0.456374 0.935466
vt 0.451367 0.972321
vt 0.923702 0.607993
vt 0.923702 0.639056
vt 0.908546 0.622199
vt 0.937345 0.552463
vt 0.937345 0.652854
vt 0.888358 0.606911
vt 0.439820 0.935708
vt 0.456120 0.935708
vt 0.439820 0.976742
vt 0.423519 0.935708
vt 0.428246 0.972341
vt 0.423541 0.935970
vt 0.606856 0.974854
vt 0.630677 0.974854
vt 0.584015 0.935196
vt 0.560097 0.935196
vt 0.440782 0.292225
vt 0.413233 0.292225
vt 0.413233 0.058217
vt 0.247940 0.292225
vt 0.247940 0.526232
vt 0.110195 0.292238
vt 0.082647 0.292238
vt 0.082647 0.058219
vt 0.220391 0.000000
vt 0.247940 0.000000
vt 0.247940 0.234008
vt 0.385684 0.292225
vt 0.495879 0.292225
vt 0.275488 0.000000
vt 0.055098 0.292238
vt 0.438297 0.794939
vt 0.438297 0.739082
vt 0.495828 0.739082
vt 0.495828 0.794939
vt 0.422322 0.459796
vt 0.422322 0.515653
vt 0.364794 0.515653
vt 0.364793 0.459796
vt 0.045327 0.990941
vt 0.045327 0.996638
vt 0.043131 0.996638
vt 0.043131 0.990941
vt 0.438351 0.348082
vt 0.438351 0.292225
vt 0.495879 0.348082
vt 0.438297 0.683225
vt 0.438297 0.627368
vt 0.495828 0.627368
vt 0.495828 0.683225
vt 0.058655 0.990511
vt 0.058655 0.998064
vt 0.055861 0.998064
vt 0.055861 0.990511
vt 0.438351 0.459796
vt 0.438351 0.403939
vt 0.495879 0.403939
vt 0.495879 0.459796
vt 0.057529 0.626726
vt 0.057529 0.682583
vt 0.000000 0.682583
vt 0.000000 0.626726
vt 0.057529 0.738440
vt 0.057529 0.794297
vt 0.000000 0.738440
vt 0.676144 0.385171
vt 0.676049 0.568452
vt 0.495882 0.568452
vt 0.495879 0.385081
vt 0.973767 0.472455
vt 0.984791 0.472455
vt 0.984791 0.655827
vt 0.973768 0.655827
vt 0.944691 0.655827
vt 0.955753 0.655827
vt 0.955753 0.839108
vt 0.944691 0.839108
vt 0.994997 0.384984
vt 0.983936 0.384984
vt 0.983936 0.202332
vt 0.994960 0.202334
vt 0.972912 0.201709
vt 0.961850 0.201709
vt 0.961888 0.018960
vt 0.972912 0.018960
vt 0.694170 0.000091
vt 0.874435 0.000000
vt 0.874435 0.183372
vt 0.694266 0.183372
vt 0.676144 0.568543
vt 0.676049 0.751824
vt 0.495882 0.751824
vt 0.972912 0.202332
vt 0.983936 0.385703
vt 0.972913 0.385703
vt 0.911506 0.655827
vt 0.922568 0.655827
vt 0.922568 0.839108
vt 0.994997 0.201612
vt 0.983936 0.201612
vt 0.983936 0.018960
vt 0.994960 0.018962
vt 0.492397 0.977688
vt 0.481335 0.977688
vt 0.481373 0.794939
vt 0.492397 0.794939
vt 0.495879 0.751915
vt 0.676144 0.751824
vt 0.676144 0.935196
vt 0.495974 0.935196
vt 0.345558 0.584539
vt 0.345463 0.767820
vt 0.165295 0.767820
vt 0.933629 0.655827
vt 0.933629 0.839108
vt 1.000000 0.838479
vt 0.988938 0.838479
vt 0.988938 0.655827
vt 0.999962 0.655829
vt 0.966815 0.838576
vt 0.955753 0.838576
vt 0.966815 0.655827
vt 0.676144 0.751915
vt 0.856409 0.751824
vt 0.856408 0.935196
vt 0.676239 0.935196
vt 0.495879 0.201709
vt 0.495885 0.000100
vt 0.694069 0.000000
vt 0.694170 0.201709
vt 0.343048 0.493934
vt 0.332228 0.484768
vt 0.332229 0.301396
vt 0.343048 0.292225
vt 0.353929 0.292225
vt 0.364793 0.301388
vt 0.364793 0.484669
vt 0.353929 0.493834
vt 0.364791 0.694749
vt 0.353929 0.685617
vt 0.353967 0.502964
vt 0.364791 0.493834
vt 0.343048 0.301367
vt 0.353929 0.493249
vt 0.343087 0.484116
vt 0.495879 0.201800
vt 0.676144 0.201709
vt 0.676144 0.385081
vt 0.495974 0.385081
vt 0.856409 0.201800
vt 0.856313 0.385081
vt 0.928739 0.018337
vt 0.939763 0.018337
vt 0.939763 0.201709
vt 0.928740 0.201709
vt 0.353730 0.694749
vt 0.364791 0.878030
vt 0.353730 0.878030
vt 0.995852 0.655108
vt 0.984791 0.655108
vt 0.995815 0.472457
vt 0.950787 0.201709
vt 0.950826 0.018960
vt 0.961850 0.018960
vt 0.856409 0.568452
vt 0.676239 0.751824
vt 0.856409 0.385171
vt 0.856313 0.568452
vt 0.950787 0.018337
vt 0.977877 0.655827
vt 0.977914 0.838477
vt 0.977877 0.838576
vt 0.966853 0.655827
vt 0.165293 0.767911
vt 0.345558 0.767820
vt 0.345558 0.951192
vt 0.165388 0.951192
vt 0.037991 0.995606
vt 0.037991 0.978010
vt 0.044771 0.978010
vt 0.044771 0.995606
vt 0.391095 0.739082
vt 0.391094 0.683224
vt 0.104729 0.738440
vt 0.104729 0.794297
vt 0.104729 0.626726
vt 0.104729 0.682583
vt 0.391151 0.459796
vt 0.391151 0.403939
vt 0.469522 0.571510
vt 0.469522 0.627367
vt 0.422322 0.627367
vt 0.422322 0.571510
vt 0.391094 0.627367
vt 0.391151 0.348082
vt 0.391151 0.292225
vt 0.469522 0.515653
vt 0.469522 0.459796
vt 0.391095 0.794939
vt 0.044348 0.977874
vt 0.044348 0.973324
vt 0.046032 0.973324
vt 0.046032 0.977874
vt 0.046032 0.991859
vt 0.046032 0.996609
vt 0.041543 0.996609
vt 0.041543 0.991859
vt 0.042665 0.973324
vt 0.042665 0.977874
vt 0.040982 0.977874
vt 0.040982 0.973324
vt 0.060716 0.973852
vt 0.060716 0.978603
vt 0.059033 0.978603
vt 0.059033 0.973852
vt 0.053984 0.978603
vt 0.053984 0.973852
vt 0.055667 0.973852
vt 0.055667 0.978603
vt 0.057773 0.974296
vt 0.057773 0.992669
vt 0.040416 0.992669
vt 0.040416 0.974296
vt 0.031211 0.995606
vt 0.031211 0.978010
vt 0.056779 0.974104
vt 0.056779 0.992475
vt 0.049999 0.992475
vt 0.049999 0.974104
vt 0.001247 0.998298
vt 0.001247 0.974633
vt 0.009980 0.974633
vt 0.009980 0.998298
vt 0.052123 0.974341
vt 0.052123 0.980291
vt 0.046503 0.980291
vt 0.046503 0.974341
vt 0.038740 0.990941
vt 0.038740 0.996638
vt 0.036545 0.996638
vt 0.036545 0.990941
vt 0.058164 0.986240
vt 0.058164 0.992189
vt 0.055969 0.992189
vt 0.055969 0.986240
vt 0.027867 0.990941
vt 0.027867 0.996890
vt 0.025672 0.996890
vt 0.025672 0.990941
vt 0.053067 0.983070
vt 0.053067 0.975184
vt 0.060518 0.975184
vt 0.060518 0.983070
vt 0.061449 0.998064
vt 0.061449 0.990511
vt 0.064243 0.990511
vt 0.064243 0.998064
vt 0.034279 0.997188
vt 0.034279 0.989301
vt 0.037073 0.989301
vt 0.037073 0.997188
vt 0.031485 0.997188
vt 0.031485 0.989301
vt 0.364794 0.627367
vt 0.364794 0.571510
vt 0.972912 0.369280
vt 0.972912 0.536851
vt 0.930153 0.536851
vt 0.930153 0.369280
vt 0.116547 0.961868
vt 0.116547 0.794297
vt 0.407552 0.962510
vt 0.364793 0.962510
vt 0.364793 0.794939
vt 0.407552 0.794939
vt 0.856409 0.201709
vt 0.899168 0.201709
vt 0.899168 0.369280
vt 0.856409 0.369280
vt 0.920833 0.000000
vt 0.920833 0.055028
vt 0.874435 0.055028
vt 0.162947 0.904353
vt 0.116547 0.904353
vt 0.116547 0.849325
vt 0.162947 0.849325
vt 0.902807 0.889115
vt 0.949204 0.889115
vt 0.949204 0.944143
vt 0.902807 0.944143
vt 0.856409 0.944143
vt 0.856409 0.889115
vt 0.874435 0.110056
vt 0.920833 0.110056
vt 0.920833 0.165084
vt 0.874435 0.165084
vt 0.162947 0.794297
vt 0.162945 0.959381
vt 0.116547 0.959381
vt 0.164088 0.626726
vt 0.000082 0.459809
vt 0.164083 0.459892
vt 0.833859 0.586821
vt 0.833859 0.605857
vt 0.815082 0.605857
vt 0.815082 0.586821
vt 0.833182 0.604921
vt 0.833181 0.586144
vt 0.883151 0.536853
vt 0.883151 0.654212
vt 0.883151 0.655827
vt 0.883149 0.536851
vt 0.883149 0.655827
vn -1.000000 0.000000 0.000000
vn 0.000000 0.000000 -1.000000
vn 1.000000 0.000000 0.000000
vn 0.000000 0.000000 1.000000
vn 0.000000 1.000000 0.000000
vn 0.002200 0.949800 0.312900
vn 0.907100 0.420900 0.000000
vn -0.002200 0.949800 -0.312900
vn -0.907100 0.420900 0.000000
vn -0.301400 0.953500 0.002600
vn 0.000000 0.406900 0.913500
vn 0.988200 0.153100 -0.000500
vn 0.000000 0.406900 -0.913500
vn 0.301400 0.953500 0.002600
vn 0.001700 -0.012900 0.999900
vn -0.301500 0.953500 -0.002400
vn 0.000100 0.000700 -1.000000
vn 1.000000 0.000900 -0.000100
vn 0.000400 0.147100 -0.989100
vn 0.000400 0.147100 0.989100
vn -0.988200 0.153100 0.000500
vn 0.988200 0.153100 0.000500
vn -0.001700 -0.012900 0.999900
vn 0.301500 0.953500 -0.002400
vn -0.988200 0.153100 -0.000500
vn -0.000100 0.000700 -1.000000
vn -0.000400 0.147100 -0.989100
vn -0.000400 0.147100 0.989100
vn -1.000000 0.002700 0.000400
vn -1.000000 0.002700 -0.000400
vn 1.000000 0.000900 0.000100
vn -0.002200 0.949800 0.312900
vn 0.002200 0.949800 -0.312900
vn 0.000000 -1.000000 0.000000
vn -0.000400 1.000000 0.000000
vn -1.000000 0.000100 -0.000000
vn 1.000000 0.000000 -0.000500
vn 0.000500 0.000000 1.000000
vn -0.925700 -0.378300 -0.000000
vn 0.926200 -0.377100 -0.000500
vn 0.000100 -0.365700 -0.930700
vn 0.000500 -0.365700 0.930700
vn 0.000000 0.497000 0.867800
vn 0.858800 0.512400 0.000000
vn 0.000000 0.497000 -0.867800
vn -0.858800 0.512400 0.000000
usemtl Material.001
s off
f 72/1/1 62/2/1 2/3/1 19/4/1
f 68/5/2 63/6/2 3/7/2 11/8/2
f 70/9/3 64/10/3 4/11/3 23/12/3
f 66/13/4 61/14/4 1/15/4 15/16/4
f 2/17/5 1/18/5 4/19/5 3/20/5
f 64/21/4 65/22/4 16/23/4 4/24/4
f 62/25/2 67/26/2 12/27/2 2/17/2
f 82/28/2 48/29/2 54/30/2 90/31/2
f 63/32/3 69/33/3 24/34/3 3/35/3
f 61/36/1 71/37/1 20/38/1 1/39/1
f 57/40/6 35/41/6 39/42/6 59/43/6
f 8/44/7 22/45/7 35/46/7 26/47/7
f 58/40/8 33/48/8 45/49/8 60/50/8
f 6/51/9 18/52/9 33/53/9 28/54/9
f 49/55/10 31/56/10 41/57/10 51/58/10
f 5/59/11 14/60/11 31/61/11 25/62/11
f 29/63/12 10/64/12 38/65/12
f 7/66/13 10/67/13 29/68/13 27/69/13
f 17/70/9 5/71/9 25/72/9 34/73/9
f 9/74/13 6/75/13 28/76/13 30/77/13
f 21/78/7 7/79/7 27/80/7 36/81/7
f 13/82/11 8/83/11 26/84/11 32/85/11
f 32/86/14 49/55/14 51/58/14 42/87/14
f 14/88/15 47/89/15 51/90/15 41/91/15
f 30/92/16 50/43/16 52/93/16 37/94/16
f 10/95/17 44/96/17 52/97/17 38/98/17
f 55/99/18 21/100/18 40/101/18 59/90/18
f 21/102/19 36/103/19 40/104/19
f 35/105/20 22/106/20 39/107/20
f 31/108/21 14/109/21 41/110/21
f 13/111/22 32/112/22 42/113/22
f 47/89/23 13/114/23 42/101/23 51/90/23
f 50/43/24 29/115/24 38/116/24 52/93/24
f 9/117/25 30/63/25 37/118/25
f 44/96/26 9/119/26 37/120/26 52/97/26
f 33/121/27 18/122/27 45/123/27
f 17/124/28 34/125/28 46/126/28
f 53/127/29 17/128/29 46/120/29 60/129/29
f 18/130/30 53/127/30 60/129/30 45/131/30
f 22/132/31 55/99/31 59/90/31 39/91/31
f 34/133/32 58/40/32 60/50/32 46/134/32
f 36/135/33 57/40/33 59/43/33 40/136/33
f 90/28/1 54/29/1 56/30/1 77/31/1
f 99/137/3 106/138/3 76/139/3 69/33/3
f 101/27/1 105/140/1 75/141/1 71/37/1
f 95/142/4 104/143/4 74/144/4 65/22/4
f 97/145/2 103/146/2 73/147/2 67/26/2
f 105/140/1 102/8/1 72/1/1 75/141/1
f 91/17/1 101/27/1 71/37/1 61/36/1
f 106/138/3 100/148/3 70/9/3 76/139/3
f 93/149/3 99/137/3 69/33/3 63/32/3
f 103/146/2 98/150/2 68/5/2 73/147/2
f 92/24/2 97/145/2 67/26/2 62/25/2
f 104/143/4 96/151/4 66/13/4 74/144/4
f 94/17/4 95/142/4 65/22/4 64/21/4
f 96/151/4 91/20/4 61/14/4 66/13/4
f 100/148/3 94/7/3 64/10/3 70/9/3
f 98/150/2 93/11/2 63/6/2 68/5/2
f 102/8/1 92/7/1 62/2/1 72/1/1
f 155/152/4 164/153/4 87/154/4 183/155/4
f 159/156/3 165/157/3 88/158/3 81/159/3
f 43/30/4 184/31/4 77/28/4 56/29/4
f 163/160/34 160/161/34 177/162/34 178/163/34
f 157/164/1 166/165/1 89/149/1 79/166/1
f 158/167/4 156/168/4 78/169/4 80/170/4
f 79/171/5 85/172/5 180/173/5 179/174/5
f 156/175/1 162/176/1 85/177/1 78/178/1
f 166/179/2 163/180/2 86/181/2 89/182/2
f 184/28/3 43/29/3 48/30/3 82/31/3
f 160/183/2 159/184/2 81/30/2 83/185/2
f 109/186/35 108/187/35 113/188/35 111/189/35
f 113/190/36 114/191/36 112/192/36 111/193/36
f 109/194/37 110/195/37 107/196/37 108/197/37
f 108/198/2 107/199/2 114/200/2 113/201/2
f 110/202/38 109/203/38 111/204/38 112/205/38
f 110/206/34 112/207/34 114/208/34 107/209/34
f 117/210/35 116/211/35 121/212/35 119/188/35
f 121/213/36 122/200/36 120/214/36 119/215/36
f 117/216/37 118/217/37 115/218/37 116/87/37
f 116/219/2 115/220/2 122/221/2 121/222/2
f 118/223/38 117/224/38 119/225/38 120/226/38
f 118/227/34 120/228/34 122/229/34 115/230/34
f 125/231/35 124/232/35 129/233/35 127/39/35
f 129/205/36 130/221/36 128/200/36 127/213/36
f 125/217/37 126/234/37 123/235/37 124/218/37
f 124/236/2 123/237/2 130/238/2 129/239/2
f 126/240/38 125/241/38 127/195/38 128/242/38
f 126/243/34 128/244/34 130/245/34 123/246/34
f 133/247/35 132/248/35 137/249/35 135/250/35
f 137/251/39 138/252/39 136/253/39 135/254/39
f 133/255/40 134/256/40 131/257/40 132/258/40
f 132/259/41 131/260/41 138/261/41 137/262/41
f 134/263/42 133/255/42 135/264/42 136/265/42
f 134/266/34 136/267/34 138/268/34 131/269/34
f 141/270/35 140/271/35 145/268/35 143/267/35
f 145/272/36 146/273/36 144/274/36 143/275/36
f 141/276/37 142/259/37 139/277/37 140/278/37
f 140/279/2 139/280/2 146/191/2 145/281/2
f 142/203/38 141/282/38 143/283/38 144/284/38
f 142/210/34 144/285/34 146/244/34 139/286/34
f 149/287/35 148/288/35 153/210/35 151/268/35
f 153/273/36 154/289/36 152/282/36 151/274/36
f 149/234/37 150/194/37 147/197/37 148/235/37
f 148/290/2 147/238/2 154/237/2 153/291/2
f 150/292/38 149/240/38 151/293/38 152/290/38
f 150/294/34 152/295/34 154/296/34 147/297/34
f 164/298/34 158/299/34 173/300/34 174/301/34
f 164/153/4 13/302/4 14/303/4 158/167/4
f 10/304/2 7/305/2 159/184/2 160/183/2
f 6/306/2 9/307/2 163/180/2 166/179/2
f 5/308/1 17/309/1 162/176/1 156/175/1
f 22/310/3 8/311/3 155/312/3 161/313/3
f 14/303/4 5/314/4 156/168/4 158/167/4
f 18/315/1 6/316/1 166/165/1 157/164/1
f 161/313/3 165/157/3 21/317/3 22/310/3
f 157/164/1 162/176/1 17/309/1 18/315/1
f 160/183/2 163/180/2 9/307/2 10/304/2
f 7/318/3 21/317/3 165/157/3 159/156/3
f 8/319/4 13/302/4 164/153/4 155/152/4
f 165/320/34 161/321/34 169/322/34 170/323/34
f 168/324/3 170/325/3 169/326/3 167/327/3
f 84/328/5 88/329/5 168/330/5 167/331/5
f 88/332/4 165/333/4 170/334/4 168/335/4
f 161/336/2 84/337/2 167/338/2 169/339/2
f 172/340/4 174/341/4 173/342/4 171/343/4
f 80/344/5 87/345/5 172/299/5 171/298/5
f 87/346/1 164/347/1 174/348/1 172/349/1
f 158/350/3 80/351/3 171/352/3 173/353/3
f 177/354/2 175/355/2 176/356/2 178/357/2
f 83/358/5 86/359/5 176/360/5 175/361/5
f 86/362/3 163/363/3 178/364/3 176/365/3
f 160/366/1 83/367/1 175/368/1 177/369/1
f 180/370/1 182/371/1 181/372/1 179/373/1
f 162/374/34 157/375/34 181/376/34 182/377/34
f 85/378/2 162/379/2 182/380/2 180/381/2
f 157/382/4 79/383/4 179/379/4 181/378/4
f 161/313/3 155/312/3 183/384/3 84/385/3
f 89/386/2 81/387/2 82/388/2 90/389/2
f 78/390/4 77/28/4 184/31/4 183/391/4
f 77/392/1 78/393/1 89/394/1 90/395/1
f 183/396/3 184/397/3 82/398/3 81/399/3
f 208/207/3 193/400/3 186/401/3 198/402/3
f 204/403/4 189/404/4 187/405/4 199/406/4
f 206/407/1 195/408/1 188/409/1 200/410/1
f 202/410/2 191/411/2 185/412/2 197/407/2
f 200/413/2 188/414/2 192/415/2 201/416/2
f 198/391/4 186/417/4 190/406/4 203/405/4
f 199/404/1 187/403/1 196/418/1 205/419/1
f 197/402/3 185/401/3 194/414/3 207/413/3
f 210/420/34 211/182/34 212/421/34 209/422/34
f 213/423/5 214/424/5 215/425/5 216/426/5
f 215/427/43 214/428/43 25/429/43 26/430/43
f 26/429/44 27/431/44 216/424/44 215/423/44
f 27/429/45 28/430/45 213/427/45 216/428/45
f 28/432/46 25/433/46 214/424/46 213/423/46
